<?xml version="1.0" encoding="utf-8"?>
<!-- Generator: Adobe Illustrator 22.1.0, SVG Export Plug-In . SVG Version: 6.00 Build 0)  -->
<svg version="1.2" baseProfile="tiny" id="Camada_1"
	 xmlns="http://www.w3.org/2000/svg" xmlns:xlink="http://www.w3.org/1999/xlink" x="0px" y="0px" viewBox="0 0 267 276"
	 xml:space="preserve">
<path fill="#FFD43F" d="M20.3,67.3c3.4,7.8,8.7,13.1,15.3,17.3c3.4,1.9,7.3,3,11.6,3.4c9.9,0.8,20.5-1.5,27.9-8.6
	c14-13.5,15.4-40.3-1.8-52.1c-15.5-10.8-42.1-5.8-51.6,11.2C16.8,47.2,16.3,57.9,20.3,67.3"/>
<path fill="#DE953D" d="M62,26.6c0.4,0,0.8,0,1.2,0c4.8,0.6,8.8,4,10.6,8.5c3.3,8.2,2.3,17.4-1.1,25.5c-0.4,1.2-0.9,2.3-1.5,3.5
	c-1.3,2.7-3,5-4.9,7c-4.9,6-11.9,11.2-19.7,10.5c-3.2,0.7-6.4,1.2-9.6,1.4c-0.9,0.1-2.1,0.2-3.4,0.2c0.7,0.5,1.4,0.9,2.1,1.4
	c3.4,1.9,7.3,3,11.6,3.4c9.9,0.8,20.5-1.5,27.9-8.6c14-13.5,15.4-40.3-1.8-52.1c-8.4-5.8-20-7-30.4-4.2C49.7,21.9,56.4,22.9,62,26.6
	"/>
<path fill="#FFFFFF" d="M66.8,63.4c-4.4-5.4-8,0.2-9.8,4.5c-0.2,0.4-0.6,0.5-0.9,0.3c-0.1,0-0.3,0-0.4-0.1
	C46.2,63.4,39.3,53,44.3,42.4c0.1-0.2,0.3-0.3,0.5-0.4c0.1-0.1,0.3-0.1,0.5-0.1c3.2,0.8,12.3,3.6,11.7-2.4c-0.2-2-0.8-3.9-1.5-5.8
	c-0.3-0.7-0.5-1.4-0.7-2.1c-0.4-0.7-0.8-1.3-1.1-2c-2.2-1.7-6.1-1.7-8.6-0.8c-3.5,1.3-6.6,3.7-8.2,7.2c-3.5,7.2-2.4,15.3,0.9,22.5
	c3.3,7.2,8.3,14.7,15.6,18.2c3.8,1.8,8.7,3.4,12.8,1.5c4.6-2.2,4.5-5.4,3.7-9C69,67.1,68.2,65.1,66.8,63.4"/>
<path fill="#FFFFFF" d="M14.1,69.7c4,9.3,10.3,15.6,18.3,20.7c4.1,2.2,8.7,3.6,13.9,4c11.9,1,24.5-1.8,33.3-10.3
	c1.7-1.6,3.2-3.4,4.5-5.2l0.9-1.3l2.9,1.3c3.9,1.9,7.7,4.4,11.6,6.3C97,81,94.2,77,91.2,73.1l-2.3-3l0.8-2.1
	c5.8-16.2,2.6-35.9-12.3-46.2C58.9,8.9,27.2,14.8,15.8,35.1C9.9,45.7,9.2,58.5,14.1,69.7 M76.1,26.2c15.6,13.7,16.7,40.9,0.6,54.9
	c-8.5,7.4-20.1,10.8-31.3,8.9c-1.1-0.2-2.2-0.4-3.2-0.7l-2.2-0.6c-5.2-1.7-9.5-4.4-13.1-8.3c-4-3.7-7.2-8.3-9-13.9
	c-3.2-9.6-3.3-20.5,2.2-29.4C30.6,19.6,59.8,11.9,76.1,26.2"/>
<path fill="#231608" d="M65.4,59.2c-4.5-2.5-8.6,2.4-9.6,6.6c-3.6-2.5-6.9-4.9-9.2-8.7c-2.5-4.2-2.2-8.7-1.2-13.2
	c3.8,1.6,11.7,3.6,13.4-1.4c0.4-1.1,0.4-2.2,0.3-3.3c0-1-0.3-2.1-0.5-3.1c0-0.1-0.1-0.2-0.1-0.3l0,0c-0.1-0.3-0.1-0.6-0.2-0.9
	c-0.3-1.1-0.7-2.4-1.3-3.5c-0.3-0.7-0.7-1.4-1.1-2.1c-2.5-5.4-12.9-2.8-16.8,0.1c-8.8,6.6-7.8,19.2-4.5,28.3
	c3.8,10.7,12,20.5,23.2,23.4c4.7,1.2,9.8,0,13.1-3.5c1-1,1.4-2.1,1.6-3.2c0.1-0.1,0.1-0.2,0.2-0.4C73.1,68.9,70,61.7,65.4,59.2
	 M66,78.2c-4.1,1.9-9,0.3-12.8-1.5c-7.3-3.5-12.3-11-15.6-18.2c-3.3-7.1-4.3-15.2-0.9-22.5c1.7-3.5,4.7-5.9,8.2-7.2
	c2.4-0.9,6.3-0.9,8.6,0.8c0.4,0.7,0.7,1.4,1.1,2c0.2,0.7,0.5,1.4,0.7,2.1c0.6,1.9,1.2,3.8,1.5,5.8c0.7,6.1-8.5,3.2-11.7,2.4
	c-0.2,0-0.4,0-0.5,0.1c-0.2,0-0.4,0.2-0.5,0.4c-5,10.6,1.9,21,11.4,25.7c0.1,0.1,0.3,0.1,0.4,0.1c0.3,0.1,0.7,0,0.9-0.3
	c1.7-4.3,5.4-9.9,9.8-4.5c1.4,1.7,2.2,3.7,2.9,5.8C70.5,72.8,70.6,76,66,78.2"/>
<path fill="#231608" d="M19.9,37.1c-5.5,8.9-5.4,19.8-2.2,29.4c1.9,5.7,5,10.2,9,13.9c3.6,3.9,7.9,6.7,13.1,8.3l2.2,0.6
	c1,0.3,2.1,0.5,3.2,0.7c11.2,1.9,22.8-1.5,31.3-8.9c16.1-14,15-41.2-0.6-54.9C59.8,11.9,30.6,19.6,19.9,37.1 M73.4,27.2
	c17.1,11.9,15.7,38.7,1.8,52.1c-7.4,7.1-18,9.4-27.9,8.6c-4.3-0.4-8.2-1.5-11.6-3.4c-6.7-4.2-11.9-9.5-15.3-17.3
	c-4.1-9.4-3.5-20.1,1.5-28.9C31.3,21.4,57.8,16.4,73.4,27.2"/>
<path fill="#231608" d="M13.6,33.6C7.1,44.2,7.2,57.2,11,68.7c2.2,6.8,6,12.2,10.8,16.6c4.3,4.7,9.5,8,15.7,10l2.6,0.7
	c1.2,0.3,2.5,0.6,3.8,0.8c13.4,2.3,27.2-1.8,37.4-10.7c2.1-1.8,3.9-3.8,5.5-5.9c4.9,2.8,9.6,5.8,14.7,7.9c0.8,0.3,1.7-0.6,1.2-1.3
	c-3.1-5.6-6.6-11-10.7-16c6.7-16.9,2.4-38.1-11.5-50.3C61.2,3.5,26.4,12.8,13.6,33.6 M77.5,21.8c14.9,10.3,18,30,12.3,46.2l-0.8,2.1
	l2.3,3c3,3.9,5.8,7.9,8.3,12.1c-4-1.9-7.7-4.4-11.6-6.3L85,77.6l-0.9,1.3c-1.4,1.9-2.9,3.6-4.5,5.2c-8.8,8.5-21.5,11.3-33.3,10.3
	c-5.2-0.4-9.8-1.8-13.9-4c-8-5-14.3-11.3-18.3-20.7c-4.9-11.2-4.2-24,1.7-34.6C27.2,14.8,58.9,8.9,77.5,21.8"/>
<g>
	<path fill="#2D4959" d="M136.2,63.1c-0.3-2.1-0.3-4.2,0.1-6.1c0.1-0.7,1.2-0.5,1.2,0.2c-0.3,8.1,4,18.7,12.5,21
		c1.5-5.2,1.8-10.5,2.4-15.9c0.1-1.3,2-1.3,2,0c0,0.7,0,1.4-0.1,2.1c0,0,0,0.2,0.1,0.2c6.1,11.8,16.4,13.9,28.4,14.9h0
		c0.4,0,0.9-0.1,0.9,0.4c0,3,0,5.8,0.3,8.9c0.2,1.8,0.8,3.8,1.1,5.7c3.2-3.8,10.7-3.2,13.6,1.1c6.5-8.1,11.7-19.8,10.3-30.4
		c-1.6-12.2-12-12.2-21.8-11c-0.4,0-0.7-0.2-0.8-0.6c-0.1,0-0.3-0.1-0.4-0.2c-6.7-7.1-12.9-16.7-24.1-15.7
		c-9.7,0.8-19.8,5.1-27.9,10.5c-8,5.4-15.1,12.6-19.4,21.4c-2.5,5-4.5,11.2-1.3,16.4c2.6,4.3,6.4,7.5,11.1,9.3
		c-0.1-4.6,0.1-9.3,0.8-13.7C126.3,74.2,128.8,66,136.2,63.1"/>
	<path fill="#19303A" d="M209.1,65.2c-0.8-6-3.7-9.1-7.7-10.5c0.6,2.7,0.6,5.6,0.4,8.3c-0.4,4.3-1.6,10.1-5.9,12.2
		c-4.5,2.2-9.8-3-11.2-6.8c-0.3-0.7-1.3-4.3-2.6-3.7c-0.6,0.3-1.4,0.7-2.1,0.9c-1.4,0.3-2.9-0.5-4-1.3c-2.9-1.9-4.4-4.7-6.1-7.6
		c-2.2,2.1-5,4.1-6.8,0.6c-0.8-1.6-1.8-4-4-4c-2.3,0-4.1,2.5-6.1,3.5c-1.4,0.7-2.9,0.3-3.7-1.1c-0.8-1.6,0.6-4.4,1-5.9
		c0.2-0.8,0.7-1.3-0.4-1.2c-0.9,0.1-1.7,0.3-2.5,0.5c-1.8,0.6-3.5,1.5-5.2,2.3c-2.4,1.1-4.8,1.7-7.5,1.2c-0.3-0.1-0.4-0.4-0.4-0.7
		c0.4-2.1,1.2-3.9,2.3-5.6c-0.9,0.5-1.8,1.1-2.6,1.7c-8,5.4-15.1,12.6-19.4,21.4c-2.5,5-4.5,11.2-1.3,16.4c2.6,4.3,6.4,7.5,11.1,9.3
		c-0.1-4.6,0.1-9.3,0.8-13.7c1.1-7.3,3.6-15.5,11-18.4c-0.3-2.1-0.3-4.2,0.1-6.1c0.1-0.7,1.2-0.5,1.2,0.2c-0.3,8.1,4,18.7,12.5,21
		c1.5-5.2,1.8-10.5,2.4-15.9c0.1-1.3,2-1.3,2,0c0,0.7,0,1.4-0.1,2.1c0,0,0,0.2,0.1,0.2c6.1,11.8,16.4,13.9,28.4,14.9h0
		c0.4,0,0.9-0.1,0.9,0.4c0,3,0,5.8,0.3,8.9c0.2,1.8,0.8,3.8,1.1,5.7c3.2-3.8,10.7-3.2,13.6,1.1C205.3,87.4,210.5,75.7,209.1,65.2z"
		/>
	<path fill="#C4CCCE" d="M189.6,176.2c-0.6,0.8-1.2,1.5-1.8,2.2c-0.2,0.2-0.4,0.5-0.5,0.7c3.8-0.5,7.7-0.9,11.5-1.8
		c4.5-1.1,8.6-2.9,12.9-4.6c-0.3-1.1-0.5-2.2-0.8-3.3c-2.5,2.6-7,4-10.3,5C197.1,175.4,193.2,176.4,189.6,176.2"/>
	<path fill="#C4CCCE" d="M160.8,203c-0.9,0.7-1.9,1.4-2.9,1.9c8.8,0.3,17.7,1.7,26.5,1c10.1-0.7,22.6-1.6,31.7-6.7
		c-0.1-0.8-0.2-1.5-0.2-2.3c-6.8,4-16.5,4.7-24.1,5.5C181.7,203.5,170.9,204.2,160.8,203"/>
	<path fill="#DE953D" d="M185.9,180.9c-4.5,5.6-9.1,11.1-14.3,15.9c-0.1,0.1-0.2,0.1-0.3,0.2c-0.4,0.4-1.3,0.2-1.5-0.4
		c-0.2-0.6-0.5-1.1-0.7-1.7c-1.6,2-3.9,4.5-6.4,6.7c8.4-0.5,16.9,0,25.4-0.7c8.9-0.8,19.7-1.5,27.7-5.9c-0.1-0.8-0.2-1.6-0.3-2.4
		c-1-6.1-2.1-12.2-3.4-18.2C204.9,178.9,194.3,181.3,185.9,180.9"/>
	<path fill="#FFFFFF" d="M189.3,243.3c-0.6-0.3-1.3-0.6-2-0.8c-3.5,1.4-7.2,2.6-10.9,3.7c-4.5,4.7-9.7,12.6-5.5,18.8
		c3.9,0.8,7.9,1,11.9,0.6c3.2-2.8,6.1-5.3,7.6-9.7C192,251.5,192.3,247.2,189.3,243.3"/>
	<path fill="#C4CCCE" d="M192.2,245c2.8,5.8,0.2,14.5-4.6,19.3c3.8-2.1,6.8-5.5,7.7-10C196.1,250,194.8,247.1,192.2,245"/>
	<path fill="#353535" d="M168.1,256.8c-4.1-0.7-8.7-1.7-12.3-3.8c-0.3,0.4-0.5,0.8-0.7,1.2c-0.3,1-0.3,1.9-0.1,2.9
		c0,0,0.1,0,0.1,0.1c4,3.6,8.7,6,13.7,7.4C167.6,262.2,167.6,259.5,168.1,256.8"/>
	<path fill="#FFFFFF" d="M167.4,248.5c-0.6,2-2.1,3.5-2.6,5.6c1.2,0.3,2.5,0.7,3.8,1c0.1-0.3,0.2-0.6,0.3-1c0.8-2.1,2-4.8,3.6-6.9
		C170.9,247.7,169.1,248.1,167.4,248.5"/>
	<path fill="#2D4959" d="M219.8,235c-0.4-6.4-2.5-12.3-6-16.7c0.9,4.1-0.1,8.9-2.3,12.1c-4,5.9-11.2,11.4-18.7,11.1
		c3.8,2.4,5.8,8,5.3,12.2c-0.3,2.3-1.2,4.6-2.5,6.6C209.2,261.1,220.7,248.6,219.8,235 M203.1,254.3c-0.2,0.6-0.3,1.3-0.7,1.9
		c-0.3,0.5-1.1,0.3-1.1-0.3c0-0.7,0.2-1.3,0.4-1.9C202,253.1,203.4,253.4,203.1,254.3 M206.8,252.8c-0.1,0.3-0.1,0.5-0.2,0.8
		c-0.1,0.6-0.3,1.2-0.5,1.7c-0.3,0.7-1.3,0.6-1.3-0.2c0-0.7,0.1-1.4,0.3-2.1c0.2-0.6,0.3-1.1,0.8-1.4c0.4-0.3,0.9,0.1,1,0.6
		c0-0.2,0,0.3,0,0.2C206.8,252.5,206.8,252.6,206.8,252.8"/>
	<path fill="#FFFFFF" d="M100.3,236.3c-1.2-0.4-2.4-0.7-3.6-1c-0.4-0.1-0.8-0.1-1.2-0.2c-4.9,1.4-8.5,4.9-10,10.1
		c-1.6,5.5-1.3,11.8,3.2,15.8c1.7,0.1,3.4,0.1,4.9,0C101.2,256.6,107.1,243.5,100.3,236.3"/>
	<path fill="#C4CCCE" d="M176.2,260.1c-3.2-1.5-4.7-4.2-4.9-7.1c-2.1,3.9-3,8.3-0.5,12c3.9,0.8,7.9,1,11.9,0.6
		c3.2-2.8,6.1-5.3,7.6-9.7c0.8-2.2,1.2-4.3,1.2-6.4C190.3,256.5,183.9,263.6,176.2,260.1z"/>
	<path fill="#C4CCCE" d="M89.2,252.7c-2.3-1.6-3.6-3.7-4.1-6.1c-1.2,5.2-0.7,10.8,3.5,14.5c1.7,0.1,3.4,0.1,4.9,0
		c2.6-1.5,5-4,6.7-6.9C96.7,255.4,92.8,255.3,89.2,252.7z"/>
	<path fill="#FFFFFF" d="M103.1,252.7c0.7-0.1,1.4-0.2,2.1-0.2c0.1-1.4,0.4-2.8,0.7-4.2c0.2-1.2,0.4-2.4,0.6-3.6
		c-0.5-0.1-1-0.3-1.4-0.4c0,1.8-0.3,3.6-0.8,5.3C104,250.4,103.6,251.5,103.1,252.7"/>
	<path fill="#C4CCCE" d="M83.5,244.8c1.4-4,4-8,7.7-10.1c0,0-0.1,0-0.1,0c-4.7,1.7-8.5,4.1-10.8,9c-2.2,4.6-2.8,9.2-1.1,14
		c1.2,1.7,3.5,2.6,6,3C81.7,256.9,82,249,83.5,244.8"/>
	<path fill="#FFFFFF" d="M109.5,252.2c0-1,0.3-2,0.4-3c0.2-1.3,0.4-2.5,0.6-3.8c-0.1,0-0.3-0.1-0.4-0.1c-0.7-0.1-1.5-0.3-2.2-0.4
		c0.1,2.4-0.4,5.1-1,7.4C107.7,252.2,108.6,252.2,109.5,252.2"/>
	<path fill="#FFFFFF" d="M145.4,229.2c-8.9,4.8-17.8,9.9-27,13.9c-0.2,2.5-0.6,4.9,0,7.5c0.7,3.2,2,4.9,4.7,6.7
		c0.1,0,0.1,0.1,0.1,0.1c0.1,0,0.2-0.1,0.4-0.1c9.2-2.3,18.4-4.6,27.6-6.9C145.3,246.4,143.4,235.9,145.4,229.2"/>
	<path fill="#C4CCCE" d="M146.2,243.5c-1.2,0.7-2.5,1.3-3.8,1.8c-2.3,1-4.7,1.8-7.1,2.3c-1.6,0.3-4.1,1.1-5.8,0.5
		c-1.4-0.5-2.8-2.7-4.2-1.8c-0.8,0.5-2,1.8-3.1,1.6c-2.3-0.3-2.7-3-2.9-5.3c-0.3,0.1-0.6,0.3-1,0.4c-0.2,2.5-0.6,4.9,0,7.5
		c0.7,3.2,2,4.9,4.7,6.7c0.1,0,0.1,0.1,0.1,0.1c0.1,0,0.2-0.1,0.4-0.1c9.2-2.3,18.4-4.6,27.6-6.9
		C148.9,248.8,147.3,246.3,146.2,243.5z"/>
	<path fill="#C4CCCE" d="M153.4,256.8c-0.4-1.7-0.2-3.6,0.8-5c-4.2,1.1-8.3,2.3-12.5,3.4C145.6,255.5,149.6,256.2,153.4,256.8"/>
	<path fill="#A52D3E" d="M152.7,120.3c1.6-0.6,4.6-1.6,6.6-1.2c0.1-0.7,0.2-1.4,0-2.2c-5.1,2.1-10.6,2.7-16.1,2.7
		c1.5,1.6,2.6,3.6,4.5,4.8C148.6,122.4,150.7,121.1,152.7,120.3"/>
	<path fill="#353535" d="M149,227.3c-0.6,0.3-1.3,0.7-1.9,1c-2,7.9,0.4,15.8,6.1,21.4c0,0,0,0,0,0.1c0.6-0.1,1.1-0.3,1.7-0.4
		C148.7,244.8,146.5,234.5,149,227.3"/>
	<path fill="#FFFFFF" d="M111.1,252.2c0.7,0,1.3,0,2,0c0-2.1,0.1-4.2,0.1-6.3c-0.5-0.1-0.9-0.1-1.3-0.2c0,1.3-0.2,2.6-0.3,4
		C111.4,250.4,111.3,251.3,111.1,252.2"/>
	<path fill="#353535" d="M117.4,254c-4.7,0.8-10.3,1.2-15,0.4c-1.1,2.5-2.6,4.9-4.5,6.5c0.2,0,0.4,0,0.6,0
		c7.4-0.5,14.9-1.3,22.1-2.9C119.2,257.1,118.1,255.7,117.4,254"/>
	<path fill="#DD8762" d="M95.4,184.5c-2,0.2-3.9,0.3-5.6,0.2c0.9,0.8,1.7,1.7,2.6,2.5c0.7-0.6,1.5-1.3,2.2-1.9
		C94.9,185.1,95.1,184.8,95.4,184.5"/>
	<path fill="#2D4959" d="M95.1,182.1c0.8-0.5,1.8-0.6,2.5-1.2c0.5-0.3,0.9-0.7,1.3-1.1c1.9-2.6,1.2-5.9,1.1-9.1
		c-0.3-5.4-0.6-10.8-0.9-16.1c-0.3-6.5,1.2-15.1-2.5-20.8c-5.3-0.3-12.6,0.6-15.5,4.3c-0.1,1.3-0.2,2.5-0.2,3.8
		c0,0.5,0.1,1.1,0.1,1.6c0.1,0.6,0.2,1.1,0.2,1.7c0,0.1,0,0.2,0,0.2c0,0.2,0,0.5,0,0.7c1.5-0.1,3,0.1,4.2,1c1.3,0.9,1.7,3.7,0.2,4.7
		c1.8,1.4,2,3.8,0,5.3c0,0-0.1,0-0.1,0.1c1.7,1.9,1.4,4.8-0.6,6.5c0.7,0.4,1.2,1.1,1.4,1.9c0.7,2.8-2.3,4.6-5,5.3
		c0.4,1.5,0.4,3,0.5,4.6c0.1,0.9,0.3,1.8,0.3,2.7C83.9,182.4,89.8,183,95.1,182.1 M88.8,143.2c-1.9,0.2-4.4-1.6-3.9-3.7
		c0.3-1.1,1.3-2,2.5-2.2c0.8-0.1,2.2-0.1,2.8,0.7c0.4,0.3,0.8,0.7,1.1,1.3C92.2,141.1,90.8,143,88.8,143.2"/>
	<path fill="#19303A" d="M87.3,139.2C87.3,139.2,87.3,139.2,87.3,139.2c-0.4,0.2-0.8,0.5-0.7,0.9c0.3,1,1.5,1.4,2.4,1.1
		c0.8-0.3,0.8-0.8,0.4-1.4C89,139.1,88.1,138.9,87.3,139.2"/>
	<path fill="#FFFFFF" d="M157,202.6c4.2-2.9,7.5-6.4,11.2-9.8c-1.4-3.4-2.8-6.8-4.9-9.9c-2-3.1-4.4-5.7-6.9-8.3
		c-1,0.9-2.2,1.6-3.3,2.5c-0.1,0.1-0.2,0.2-0.4,0.2c0.8,1.3,1.5,2.7,2.3,4.1c0.4,0.7-0.6,1.1-1,0.6c-4.2-5.5-8.2-11.4-12-17.3
		c-1.7,4.8-7,9.4-11.9,10.8c4.6,6.2,7.5,14,11.4,20.5C144.9,201.6,150.2,207.2,157,202.6 M154,198.5c0.3-0.8,1.4-0.5,1.3,0.3
		c-0.2,0.7-0.2,1.6-0.8,2.1c-0.3,0.3-0.8,0.2-0.9-0.2C153.4,199.9,153.7,199.2,154,198.5 M150.9,198c0-0.8,1.3-0.8,1.3,0
		c0,0.7,0,1.4-0.5,1.9c-0.4,0.4-1,0.1-1-0.4C150.7,199,150.9,198.5,150.9,198"/>
	<path fill="#F9A870" d="M84,165.6c-1.7-1.4-4.6-1.3-6.4-0.2c-1.6,1-3,2.9-2.5,4.9c0.6,2.1,2.3,2.8,4.3,2.9c0-0.7,0.1-1.4,0.2-2.1
		c-0.3,0-0.5,0-0.8,0c-0.9,0-1-1.2-0.2-1.5C79.6,169.4,86.3,167.6,84,165.6"/>
	<path fill="#FFD43F" d="M143.7,220.4c0.9,0.8,1.8,1.7,2.8,2.3c0.9,0.6,2.2,0.9,3.1,1.7c6.2-3.1,12.4-6.2,18.8-8.9
		c11.4-4.8,28.4-11.3,40.5-4.8c3.7,2,6.8,5.1,9,8.9c-0.9-6-1.1-12.1-1.6-18.2c-4,2.3-8.8,3.3-13.2,4.2c-5.6,1.1-11.2,2.1-16.8,2.5
		c-12.8,1-26.2,0.1-39-1.5c-0.6-0.1-0.8-0.6-0.6-1c0,0-0.1,0-0.1-0.1c0.1,2.3-0.3,4.6-0.7,6.8c-0.5,2.5-1,5.2-2.3,7.5
		c0,0,0,0.1,0,0.1C143.7,220.1,143.7,220.2,143.7,220.4"/>
	<path fill="#FFFFFF" d="M128.9,177.7c-2.4,3.1-7.1,7.1-11.2,6.5c-4-0.6-8.8-3.5-11.3-6.9c0,0.1-0.1,0.2-0.1,0.3
		c-0.3,1.5-0.9,2.7-2,3.4c-0.4,0.5-0.9,0.9-1.5,1.1c-1.4,1-3.2,1.6-5.1,2c-0.5,1-1.5,1.8-2.2,2.5c-0.6,0.6-1.3,1.1-2,1.6
		c4.9,4.7,10,9,16.4,12c5.8,2.7,12.2,3.9,18.2,0.7c3.4-1.9,6.6-4.1,9.7-6.5c-0.5-1-1.1-2-1.6-2.9C133.7,187,131.1,182.4,128.9,177.7
		"/>
	<path fill="#C4CCCE" d="M163.3,183c-1.1-1.7-2.4-3.3-3.7-4.8c0.1,0.3,0.3,0.6,0.4,0.9c1.2,2.5,2,5.7,1.5,8.5
		c-1.1,5.6-6.5,9.6-11.6,5.9c-2.6-1.9-4.5-4.9-6.1-7.5c-1.5-2.5-4.1-6.1-3.9-9.2c0.2-2.5,1.3-4.9,1.5-7.5c0-0.2,0.1-1.8,0.1-3.3
		c-2.1,4.3-6.9,8.2-11.3,9.5c4.6,6.2,7.5,14,11.4,20.5c3.3,5.5,8.6,11.2,15.4,6.5c4.2-2.9,7.5-6.4,11.2-9.8
		C166.8,189.5,165.4,186.1,163.3,183z M151.7,199.9c-0.4,0.4-1,0.1-1-0.4c0-0.5,0.2-1,0.2-1.5c0-0.8,1.3-0.8,1.3,0
		C152.2,198.7,152.2,199.4,151.7,199.9z M155.3,198.8c-0.2,0.7-0.2,1.6-0.8,2.1c-0.3,0.3-0.8,0.2-0.9-0.2c-0.2-0.8,0.2-1.5,0.4-2.3
		C154.3,197.7,155.4,198,155.3,198.8z"/>
	<path fill="#C4CCCE" d="M136.2,191.5c-1.7-3.1-3.4-6.2-5.1-9.4c0.3,6.7-5.8,14.3-13.1,12.2c-3.8-1.1-7.8-4.6-9.9-7.8
		c-1.1-1.6-2-3.4-2.1-5.3c0-0.6,0.1-1.6,0.1-2.6c-0.3,1.1-0.9,2-1.7,2.5c-0.4,0.5-0.9,0.9-1.5,1.1c-1.4,1-3.2,1.6-5.1,2
		c-0.5,1-1.5,1.8-2.2,2.5c-0.6,0.6-1.3,1.1-2,1.6c4.9,4.7,10,9,16.4,12c5.8,2.7,12.2,3.9,18.2,0.7c3.4-1.9,6.6-4.1,9.7-6.5
		C137.2,193.4,136.7,192.4,136.2,191.5z"/>
	<path fill="#F9A870" d="M83.5,163.1c0.7-1.4,1.6-2.9,0.6-4.3c-0.4-0.6-1-0.9-1.7-0.9c-1.7,0-3.4,0.6-4.8,1.5
		c-1.8,1.1-6.2,4.5-2.7,5.9c0.9-1,2-1.7,3.3-2.1C79.5,162.7,81.7,162.6,83.5,163.1"/>
	<path fill="#EA4256" d="M158.7,120.9c-1.5,0.3-3.1,0.2-4.5,0.6c-2.2,0.7-4,1.7-5.2,3.5C152.8,126.3,157,124.2,158.7,120.9"/>
	<path fill="#FFD43F" d="M147.3,164.6c-0.4-4.5-0.7-9-0.5-13.5c0-0.8,1.1-0.7,1.2,0c0.5,3.9,0.8,7.9,1.2,11.8
		c0.3,3.1,0.9,6.5,0.7,9.6c0.6,1,1.2,1.9,1.7,2.9c0.9-1,2.1-1.7,3.4-2.3c-0.2-0.2-0.4-0.4-0.5-0.6c-0.1-0.1-0.2-0.2-0.2-0.3
		c-0.2-0.3-0.2-0.8,0.2-1.1c9.8-8.7,16-20.9,25-30.5c0.4-0.5,1.3,0.2,0.9,0.7c-7.5,10.2-14.4,22.1-23.8,30.7
		c7.2,4.5,13,14.1,14.6,22.4c4-5.1,8.6-9.7,12.7-14.7c4.9-6.1,8.6-12.8,13.2-19c0.5-0.6,1.5-0.3,1.3,0.6c-1,4.6-4.2,9-7.3,13
		c3.4-0.4,6.8-1,10.1-2.2c3.3-1.1,6.1-3,9.3-4.3c-0.3-1.4-0.7-2.8-1.1-4.1c-2.4-8.9-4.7-18-11.4-24.8c-6-6.1-12.6-8.9-20.8-9.6
		c0,0.1,0,0.3,0,0.4c0,0.1,0,0.1,0,0.2c-0.5,5.7-6.7,12.6-12.6,13c-5.6,0.3-9.1-6-4.3-9.6c0-0.1,0-0.2,0-0.3c0,0-0.1,0.1-0.1,0.1
		c-0.6,0.2-1.2,0.3-1.8,0.4c-2,0.7-4,1.2-6,1.4c-3.7,1-7,2.7-8.8,6.6c-2.2,4.7-2.9,9.8-3.9,14.8c2.7,4,5.3,8.1,7.9,12.2
		C147.4,167.2,147.4,165.9,147.3,164.6"/>
	<path fill="#DE953D" d="M216.3,201.4c-4,2.3-8.8,3.3-13.2,4.2c-5.6,1.1-11.2,2.1-16.8,2.5c-1.5,0.1-3,0.2-4.6,0.3
		c-0.5,1-1,1.9-1.6,2.8c9.6-3.1,20.4-4.8,28.8-0.3c3.7,2,6.8,5.1,9,8.9C217.1,213.6,216.8,207.5,216.3,201.4z"/>
	<path fill="#DE953D" d="M162.9,143.8c6.3,0.1,12.8-2.6,18.1-5.9c2.8-1.7,4.9-3.7,7.2-5.9c-3.4-1.5-7-2.3-11-2.7c0,0.1,0,0.3,0,0.4
		c0,0.1,0,0.1,0,0.2c-0.5,5.7-6.7,12.6-12.6,13c-5.6,0.3-9.1-6-4.3-9.6c0-0.1,0-0.2,0-0.3c0,0-0.1,0.1-0.1,0.1
		c-0.6,0.2-1.2,0.3-1.8,0.4c-2,0.7-4,1.2-6,1.4c-3.1,0.9-5.9,2.2-7.8,4.9C149,143.2,159.4,143.7,162.9,143.8z"/>
	<path fill="#DE953D" d="M160.4,165.1c-1-0.7-2.1-1.3-2.5-1.7c-3.9-3.4-6.4-7.8-9.8-11.7c0.4,3.7,0.8,7.5,1.1,11.2
		c0.3,3.1,0.9,6.5,0.7,9.6c0.6,1,1.2,1.9,1.7,2.9c0.9-1,2.1-1.7,3.4-2.3c-0.2-0.2-0.4-0.4-0.5-0.6c-0.1-0.1-0.2-0.2-0.2-0.3
		c-0.2-0.3-0.2-0.8,0.2-1.1C156.6,169.3,158.6,167.2,160.4,165.1z"/>
	<path fill="#DE953D" d="M187.6,169.3c-2.8,2.6-5.5,5.4-8.8,7.5c-1.9,1.2-5.4,3.3-7.4,1.3c-1.1-1-1.2-2.3-1.3-3.7
		c-0.2-3.1-2.7-5.3-5.8-5.4c-1,0-1.8-0.4-1.8-1.6c0-0.3-0.2-0.6-0.5-0.9c-1.7,2-3.5,3.9-5.4,5.6c7.2,4.5,13,14.1,14.6,22.4
		c4-5.1,8.6-9.7,12.7-14.7c4.6-5.6,8-11.8,12.2-17.6C192.9,163.4,189.3,167.6,187.6,169.3z"/>
	<path fill="#DE953D" d="M199.9,163.3c-0.5-0.7-1.1-1.1-1.7-1.3c-1.2,4.4-4.1,8.6-7.1,12.4c3.4-0.4,6.8-1,10.1-2.2
		c3.3-1.1,6.1-3,9.3-4.3c-0.1-0.4-0.2-0.9-0.3-1.3C206.5,166.4,202.1,166.5,199.9,163.3z"/>
	<path fill="#F9A870" d="M151.4,132.7c0.4,0,0.8-0.1,1.2-0.1c0.8-0.2,1.7-0.4,2.5-0.5c4.4-1.1,8-3.5,12.2-5.7c0.6-0.3,1.3,0.5,0.8,1
		c-1.8,1.8-3.9,3.3-6.2,4.5c0.2,0.6,0.3,1.2,0.4,1.8c0.1,0.8,0.4,1.8,0,2.6c-0.2,0.4-0.8,0.5-1.1,0.1c-0.3-0.3-0.4-0.6-0.5-0.9
		c-0.9,2.2-1.1,4.7,2.1,5.3c2.1,0.4,4.1-0.4,5.8-1.5c3.3-2.3,5.8-5.3,6.7-9.3c-0.4-0.8-0.4-2-0.5-2.9c-0.2-1.1-0.4-2.3-0.2-3.4
		c-0.1-0.3-0.1-0.6,0.2-0.9c1.9-1.7,4.3-2.8,6.1-4.7c1.8-1.8,3.4-3.7,4.9-5.8c0.1-0.1,0.2-0.2,0.3-0.3c0.2-0.2,0.5-0.4,0.9-0.3
		c6.7,1.8,11.8-5.9,11-12c-0.9-6.5-9.5-8.3-12.5-1.9v0c0,0.8-1.2,1.3-1.6,0.4c-1.4-2.8-1.6-6.5-1.9-9.7c-0.2-2.6-0.4-5.3,0.2-7.9
		c-10,2.2-23.3-3.8-27.9-13.1c-0.3,4.1-1,8.1-2.3,12.1c-0.2,0.6-0.7,0.9-1.4,0.8c-7-1.3-12.3-8.3-14-15.5
		c-6.7,3.9-8.8,11.8-9.4,19.3c-0.6,6.9-0.7,14.4,0.5,21.3c1.3,7.9,4.1,16.7,10.3,22.1C141.6,130.9,146.3,133.1,151.4,132.7
		 M193.6,97.4c0.8,0.2,0.6,1.4-0.2,1.4c-1.8,0-2.8,0.8-3.4,2c0.9,0.2,1.6,0.5,2.3,1.1c0.7,0.5,1.7,1.6,1.4,2.5
		c-0.1,0.4-0.5,0.6-0.9,0.5c-0.7-0.2-1.1-1.1-1.7-1.6c-0.5-0.5-1.1-0.8-1.7-1.1c-0.4,1.3-0.5,2.7-0.9,3.9c-0.2,0.7-1.1,0.6-1.3,0
		C186.1,102.6,189.2,96,193.6,97.4 M161.2,101.7c-0.8,0.4-2,0-2.1-1.2c0-0.4-0.1-0.8-0.1-1.2c-0.2-1-0.3-2.1-0.2-3.1
		c0-0.3,0-0.7,0-1c0-0.3,0.1-0.6,0.3-0.8c0.3-1.3,2.2-1.1,2.5,0.1c0.1,0.1,0.2,0.3,0.2,0.5c0.4,1.7,0.6,3.5,0.6,5.3
		C162.5,101.1,161.9,101.6,161.2,101.7 M172.4,102.7c-0.5,0.5-1.2,1-1.8,1.4c-0.6,0.3-1.3-0.5-0.7-0.9c0.6-0.5,1.2-1.2,2-1.3
		C172.3,101.7,172.8,102.3,172.4,102.7 M166.3,102.8c0.9-0.7,1.8-1.5,2.9-1.9c0.6-0.2,0.9,0.6,0.6,0.9c-0.8,0.8-1.7,1.4-2.7,1.9
		C166.4,104,165.7,103.2,166.3,102.8 M155.1,82.8c0.8-5.5,8.5-3.5,9.7,0.7c0.2,0.6-0.6,1.3-1.1,0.9c-1.1-0.9-2.3-2.1-3.7-2.4
		c-1.6-0.3-2.6,0.5-3.6,1.6C155.7,84,155,83.5,155.1,82.8 M128.4,107.3c0.5-0.5,1.1-0.9,1.9-1c0.5,0,0.8,0.7,0.4,1
		c-0.4,0.3-0.9,0.6-1.3,1C128.7,108.9,127.7,107.9,128.4,107.3 M133.1,107.9c-0.2,0.7-1,1-1.6,1.2c-0.6,0.1-1.2-0.6-0.6-1.1
		c0.4-0.3,1-0.7,1.5-0.8C132.8,107.1,133.3,107.5,133.1,107.9 M133.8,102.8c-0.8,0.4-2,0-2.1-1.2c0-0.4-0.1-0.8-0.1-1.2
		c-0.2-1-0.3-2.1-0.2-3.1c0-0.3,0-0.7,0-1c0-0.3,0.1-0.6,0.3-0.8c0.3-1.3,2.2-1.1,2.5,0.1c0.1,0.1,0.2,0.3,0.2,0.5
		c0.4,1.7,0.6,3.5,0.6,5.3C135,102.2,134.4,102.7,133.8,102.8 M136.9,84.8c-1.2-0.2-2.6-0.8-3.8-0.5c-1.5,0.3-2,1.3-2.5,2.6
		c-0.2,0.7-1.2,0.7-1.4,0c-1.4-4.7,6.3-6.9,8.6-3.2C138.2,84.2,137.5,84.9,136.9,84.8 M139.2,108.9c1.8-1.7,5.1-1.1,6.9,0.2
		c0.6,0.4,0.2,1.5-0.5,1.2c-0.9-0.4-2.1-0.7-3.1-0.7c-0.4,0-0.8,0-1.2,0.1c-0.3,0.1-0.6,0.2-0.7,0.3c-0.1,0.1-0.1,0.1-0.2,0.2
		c0,0,0,0,0,0c0,0,0,0.2,0,0.1c0,0,0,0.1,0,0.1c0.1,0.1,0.1,0.2,0.2,0.3c0.8,0.8,2,1.1,2.8,1.8c0.4,0.4,0.1,1.1-0.5,1.1
		C141,113.8,136.9,111.1,139.2,108.9 M141.1,120c-0.1-0.1-0.2-0.3-0.2-0.4c-0.4,0-0.9,0-1.3,0c-0.9,0-0.9-1.4,0-1.4
		c7-0.4,13.6-0.7,20.2-3.4c0.5-0.2,1,0.2,1.1,0.6c1.9,5.8-2.5,10.5-8,11.9C147.3,128.8,144.3,123.4,141.1,120"/>
	<path fill="#F9A870" d="M77.8,151.5c1.9-0.9,4.3-1.1,6.4-0.4c0.1-1.1,1-2.2-0.5-2.8c-1.5-0.5-3.3-0.5-4.9-0.2
		c-1.7,0.3-3.7,0.8-5,2.1c-1.3,1.3-0.5,2.3,0.2,3.6C75.1,152.9,76.5,152.1,77.8,151.5"/>
	<path fill="#F9A870" d="M77.1,157.4c2-1.1,5.1-2.3,7.3-1c0,0,0,0,0,0c0,0,0,0,0-0.1c0.4-0.9,1.3-2.1,0.3-2.9
		c-0.7-0.6-1.8-0.8-2.7-0.9c-1.5-0.1-2.7,0.1-4,0.8c-1.4,0.8-2.9,1.7-4,2.9c-1.3,1.4-1.1,2.2,0.7,2.9
		C75.4,158.5,76.2,157.9,77.1,157.4"/>
	<path fill="#19303A" d="M101.5,158.6c0.4,6.2,1.4,12.8,0.8,19c-0.1,0.7-0.2,1.3-0.5,1.9c0.2-0.1,0.5-0.3,0.7-0.4
		c0.2-0.1,0.3-0.3,0.5-0.4c0.4-0.6,0.8-1.1,1-1.8c0.1-0.3,0.1-0.5,0.2-0.8c0-0.1,0-0.3,0.1-0.4c0-0.1,0-0.1,0-0.2
		c0-0.2,0-0.4,0.1-0.6c-0.1-1.2,0-2.3-0.1-3.5c0-1.1-0.1-2.1-0.1-3.2c-0.6-4.9-0.7-9.9-0.9-14.8c-0.3-4.6-0.9-9.2-1.4-13.7
		c-0.1-0.4-0.2-0.9-0.3-1.3c0-0.2-0.1-0.5-0.2-0.7c-0.2-0.7-0.4-1.3-0.6-2.1c-0.2-0.5-0.4-1-0.7-1.4c-0.1-0.1-0.2-0.2-0.3-0.2
		c-0.3-0.1-0.7-0.1-1-0.1c1.4,2,1.9,4.5,2.1,7C101.3,146.9,101.2,152.8,101.5,158.6"/>
	<path fill="#F9A870" d="M115.3,148.4c0.1,0,0.1,0,0.1,0c0.2-0.1,0.3-0.1,0.5-0.2c0.9-0.3,1.7-0.7,2.6-0.5c0.5,0.1,0.5,0.7,0.3,1
		c-0.6,0.8-1.9,1-2.8,1.2c-0.4,0.1-0.8,0.2-1.1,0.3c-1.3,0.5-2.7,1-3.2,2.2c-0.4,0.9-0.2,1.9,0.2,2.9c0.2,0.3,0.4,0.5,0.5,0.8
		c0.1,0.1,0.1,0.2,0.1,0.3c0,0.1,0,0.1,0,0.2c0.1,0.3,0.1,0.6,0.1,0.9c0,0.7-0.1,1.4-0.1,2.1c0,0.8,0.2,1.5,0.4,2.3
		c1,2.1,0,5.9,2.3,7.1c1.4,0.7,3.6,0.8,4.8-0.4c0.6-0.6,0.9-1.5,0.6-2.4c-0.5-1.3-1.9-0.6-2.6-0.4c-0.7,0.2-1-0.7-0.4-1.1
		c0.1-0.1,0.3-0.2,0.4-0.2c0-0.1,0.1-0.1,0.2-0.2c0.9-0.6,2-0.6,3-0.3c0.9,0.3,1.8,1.2,1.6,2.1c0.7,1.4,1.3,2.9,2.2,4.2
		c1,1.4,2.6,2.1,3.8,3.3c0.1,0.1,0.1,0.2,0.2,0.3c0.1,0.1,0.2,0.3,0.3,0.4c2.6-1,5-2.5,7-4.4c2.1-2,3.3-4.3,4.8-6.7
		c0,0,0-0.1,0.1-0.1c-1.9-3-3.9-6-5.8-9c-3.9-6-7.2-10.3-15.1-10.1c-5,0.2-10.1,0.1-15.2-0.3c0.1,1.1,0.2,2.3,0.3,3.4
		C108.6,147.8,112,147.4,115.3,148.4"/>
	<path fill="#FFFFFF" d="M116.8,252.1c-0.5-2-0.7-4.2-0.6-6.1c-0.5,0-0.9,0-1.4,0c0.4,1.9,0.4,4.2,0.1,6.1
		C115.5,252.1,116.1,252.1,116.8,252.1"/>
	<path fill="#FFFFFF" d="M161.5,251.1c-0.4,0.5-0.8,1.1-1,1.7c0.9,0.3,1.9,0.5,2.9,0.8c0.1-1.6,0.8-3.3,1.8-4.6
		c-0.8,0.2-1.6,0.4-2.4,0.6C162.4,250.2,161.9,250.6,161.5,251.1"/>
	<path fill="#C4CCCE" d="M131.9,228.5c-0.8-0.5-1.6-1-2.4-1.5c-0.1,0-0.1,0.1-0.2,0.1c-3.1,1.2-5.8,3.5-7.3,6.5
		c-1.1,2.2-1.3,4.4-1.9,6.6c2.4-1.5,4.8-3,7.3-4.3c0,0,0-0.1,0-0.1c-0.2-1.5,0.9-3.3,1.7-4.4C129.8,230.2,130.7,229.3,131.9,228.5"
		/>
	<path fill="#FFFFFF" d="M159.9,250.4c-0.8,0.2-1.7,0.4-2.5,0.6c0,0-0.1,0-0.1,0c0,0.2-0.1,0.3-0.2,0.4c-0.1,0.1-0.2,0.2-0.3,0.3
		c0.7,0.2,1.4,0.4,2.2,0.7C159.2,251.7,159.5,251,159.9,250.4"/>
	<path fill="#F9A870" d="M90,232.6c3.9-1.2,9,0.5,12.5,1.9c5,2,10,5.1,15.3,6.2c-0.4-3,1.1-6.7,2.6-9c1.8-2.8,4.1-4.9,7.2-6
		c-1.2-0.8-2.4-1.6-3.6-2.3c-4.5-2.6-8.9-5-13.7-6.4c-4.1-0.8-8.2-1.5-12.2-1.9c-7.3-0.6-15.6-0.4-17.8,8.3
		c-1,3.8-1.6,10.4,0.7,14.1C83.5,234.8,86.6,232.8,90,232.6"/>
	<path fill="#2D4959" d="M138.7,229.9c1.7-0.9,3.5-1.8,5.2-2.7c1-0.5,2.1-1.1,3.1-1.6c-0.9-0.4-1.7-1-2.3-1.4
		c-1.1-0.8-2.7-2-2.9-3.5c-0.1-0.1-0.1-0.3-0.1-0.5c0-0.1,0-0.1,0-0.2c-0.5-0.3-1.1-0.4-1.7-0.2c-0.8,0.2-1.6,0.5-2.4,0.6
		c-0.2,0.1-0.4,0-0.6-0.1c-5.8,0.3-11.6-0.5-17.5-1.6c0.9,0.4,1.8,0.9,2.6,1.4C127.6,223.3,133.4,226.4,138.7,229.9"/>
	<path fill="#353535" d="M106.6,238.9c-1.1-0.5-2.2-1-3.3-1.5c1,1.5,1.5,3.3,1.7,5.2c1.9-0.1,3.9,0.3,5.7,0.6
		c1.9,0.3,3.9,0.4,5.8,0.9c0.1-0.6,0.2-1.1,0.4-1.6C113.3,242.8,109.5,240.2,106.6,238.9"/>
	<path fill="#C4CCCE" d="M150.8,226.3c-2.7,7.8-0.4,16.8,5.7,22.3c0.1,0.1,0.1,0.1,0.2,0.2c1-0.3,2-0.5,3-0.8
		c-6.5-4.9-7.3-16.4-4.8-23.9C153.5,224.9,152.1,225.6,150.8,226.3"/>
	<path fill="#F9A870" d="M193.6,239.6c6-1,11.8-4,15.3-9.2c4.2-6.2,3.4-11.2-0.4-16.5c-0.2-0.1-0.3-0.3-0.5-0.4
		c-0.2-0.1-0.3-0.3-0.5-0.4c-3.2-1.8-7.1-2.7-11.6-2.5c-13.9,0.7-27.2,6.8-39.5,12.8c-2.3,7-1.4,19.4,5.5,23.6
		c0.2,0.1,0.3,0.2,0.4,0.4c0.2,0,0.4-0.1,0.6-0.1c11.5-3.1,24-5.6,34.5-11.4c0.7-0.4,1.3,0.6,0.6,1.1
		C196.6,237.8,195.1,238.7,193.6,239.6 M197.3,217.1c-0.3,0.1-0.7,0.1-1,0.1c-0.8,0-0.8-1.2,0-1.2c0.3,0,0.7,0,1,0.1
		C197.8,216.2,197.8,217,197.3,217.1 M196.1,214.2c-0.8,0.1-1.2-1.1-0.4-1.3c1-0.2,2.2-0.4,3.1,0.1c0.4,0.2,0.4,1-0.1,1.1
		C197.9,214.3,197,214.1,196.1,214.2"/>
	<path fill="#DD8762" d="M197.8,99.9c-0.9-6.5-9.5-8.3-12.5-1.9v0c0,0.8-1.2,1.3-1.6,0.4c-1.4-2.8-1.6-6.5-1.9-9.7
		c-0.2-2.6-0.4-5.3,0.2-7.9c-10,2.2-23.3-3.8-27.9-13.1c-0.3,4.1-1,8.1-2.3,12.1c-0.2,0.6-0.7,0.9-1.4,0.8c-7-1.3-12.3-8.3-14-15.5
		c-4.7,2.8-7.1,7.4-8.4,12.5c1.2-1.4,2.5-2.8,3.8-4.1c0.1-0.1,0.3-0.2,0.5-0.1c5.1,2.1,9.1,6.2,14.3,8c2.8,0.9,5.6,1.1,8.4,1.1
		c1.2-4.8,8.1-3,9.5,0.9c6.2,2,10.3,7.9,12,14.1c3.4,12.7-2.5,28.9-14.7,34.6c0,0-0.1,0.1-0.1,0.1c0.2,0.6,0.3,1.2,0.4,1.8
		c0.1,0.8,0.4,1.8,0,2.6c-0.2,0.4-0.8,0.5-1.1,0.1c-0.3-0.3-0.4-0.6-0.5-0.9c-0.9,2.2-1.1,4.7,2.1,5.3c2.1,0.4,4.1-0.4,5.8-1.5
		c3.3-2.3,5.8-5.3,6.7-9.3c-0.4-0.8-0.4-2-0.5-2.9c-0.2-1.1-0.4-2.3-0.2-3.4c-0.1-0.3-0.1-0.6,0.2-0.9c1.9-1.7,4.3-2.8,6.1-4.7
		c1.8-1.8,3.4-3.7,4.9-5.8c0.1-0.1,0.2-0.2,0.3-0.3c0.2-0.2,0.5-0.4,0.9-0.3C193.6,113.7,198.6,105.9,197.8,99.9z M193.5,98.8
		c-1.8,0-2.8,0.8-3.4,2c0.9,0.2,1.6,0.5,2.3,1.1c0.7,0.5,1.7,1.6,1.4,2.5c-0.1,0.4-0.5,0.6-0.9,0.5c-0.7-0.2-1.1-1.1-1.7-1.6
		c-0.5-0.5-1.1-0.8-1.7-1.1c-0.4,1.3-0.5,2.7-0.9,3.9c-0.2,0.7-1.1,0.6-1.3,0c-1.3-3.6,1.8-10.2,6.3-8.8
		C194.4,97.7,194.3,98.8,193.5,98.8z"/>
	<path fill="#F9A870" d="M157.7,82.3c1.2,0,2.4,0.1,3.6,0.2c-0.4-0.3-0.9-0.5-1.4-0.6C159,81.7,158.3,81.9,157.7,82.3z"/>
	<path fill="#DD8762" d="M137.1,165.7c-3.6,1.8-7.9,1.6-11.4-0.5c-2.5-1.5-4.5-6.1-7.8-5.5c-1.8,0.3-3.2,0-4.8-0.7
		c-0.2-0.1-0.4-0.2-0.7-0.3c0,0.4-0.1,0.7-0.1,1.1c0,0.8,0.2,1.5,0.4,2.3c1,2.1,0,5.9,2.3,7.1c1.4,0.7,3.6,0.8,4.8-0.4
		c0.6-0.6,0.9-1.5,0.6-2.4c-0.5-1.3-1.9-0.6-2.6-0.4c-0.7,0.2-1-0.7-0.4-1.1c0.1-0.1,0.3-0.2,0.4-0.2c0-0.1,0.1-0.1,0.2-0.2
		c0.9-0.6,2-0.6,3-0.3c0.9,0.3,1.8,1.2,1.6,2.1c0.7,1.4,1.3,2.9,2.2,4.2c1,1.4,2.6,2.1,3.8,3.3c0.1,0.1,0.1,0.2,0.2,0.3
		c0.1,0.1,0.2,0.3,0.3,0.4c2.6-1,5-2.5,7-4.4c2.1-2,3.3-4.3,4.8-6.7c0,0,0-0.1,0.1-0.1c-0.1-0.2-0.3-0.4-0.4-0.6
		C139.8,163.8,138.6,164.9,137.1,165.7z"/>
	<path fill="#DD8762" d="M116.9,231.4c-2.3,1.6-4.6,3-7.3,3.5c-3.2,0.5-6.9-0.4-9.9-1.6C94.4,231,87.4,226,86,220.1
		c-0.3-1.3-0.2-2.6,0.2-3.8c-2.8,1.2-5,3.4-6,7.3c-1,3.8-1.6,10.4,0.7,14.1c2.5-2.8,5.6-4.8,9-5c3.9-1.2,9,0.5,12.5,1.9
		c5,2,10,5.1,15.3,6.2c-0.4-3,1.1-6.7,2.6-9c1.8-2.8,4.1-4.9,7.2-6c-0.4-0.3-0.9-0.6-1.3-0.8C122.9,226.4,119.8,229.2,116.9,231.4z"
		/>
	<path fill="#DD8762" d="M210.6,217.4c-0.5,8.8-14.8,15.1-22.8,17.6c-6.3,1.9-13.6,4-20.2,2.6c-4-0.8-8.1-2.9-9.4-7.1
		c-0.7-2.2-1-5.4-0.2-7.9c-0.5,0.3-1,0.5-1.5,0.8c-2.3,7-1.4,19.4,5.5,23.6c0.2,0.1,0.3,0.2,0.4,0.4c0.2,0,0.4-0.1,0.6-0.1
		c11.5-3.1,24-5.6,34.5-11.4c0.7-0.4,1.3,0.6,0.6,1.1c-1.4,1-2.9,1.9-4.4,2.7c6-1,11.8-4,15.3-9.2
		C212.1,225.6,212.4,221.5,210.6,217.4z"/>
	<path fill="#C4CCCE" d="M134.7,230.1c0.1,0.2,0.1,0.4,0,0.5c-0.5,0.6-0.8,1.3-1.2,2c1.1-0.6,2.1-1.1,3.2-1.7
		C136,230.7,135.3,230.4,134.7,230.1"/>
	<path fill="#EA4256" d="M131.4,233.7c0.2-1.4,1.3-2.7,2.3-3.8c0.1-0.1,0.2-0.1,0.3-0.2c-0.3-0.2-0.6-0.3-0.9-0.4
		c0,0-0.1,0.1-0.1,0.1c-1.2,0.9-2.2,2.2-3,3.5c-0.3,0.6-0.6,1.3-0.9,2C129.9,234.5,130.7,234.1,131.4,233.7
		C131.4,233.7,131.4,233.7,131.4,233.7"/>
	<g>
		<path fill="#231608" d="M130.2,106.3c-0.8,0-1.4,0.5-1.9,1c-0.6,0.6,0.3,1.6,1,1c0.4-0.4,0.9-0.6,1.3-1
			C131,107,130.7,106.3,130.2,106.3"/>
		<path fill="#231608" d="M193.5,98.8c0.8,0,0.9-1.2,0.2-1.4c-4.4-1.5-7.5,5.2-6.3,8.8c0.2,0.6,1.1,0.7,1.3,0
			c0.3-1.1,0.5-2.6,0.9-3.9c0.6,0.3,1.2,0.6,1.7,1.1c0.6,0.5,0.9,1.3,1.7,1.6c0.4,0.1,0.8-0.1,0.9-0.5c0.3-1-0.7-2-1.4-2.5
			c-0.7-0.6-1.5-0.9-2.3-1.1C190.7,99.6,191.7,98.8,193.5,98.8"/>
		<path fill="#231608" d="M137.8,83.6c-2.3-3.7-10-1.5-8.6,3.2c0.2,0.7,1.2,0.7,1.4,0c0.5-1.4,1-2.3,2.5-2.6
			c1.2-0.3,2.6,0.3,3.8,0.5C137.5,84.9,138.2,84.2,137.8,83.6"/>
		<path fill="#231608" d="M164.8,83.5c-1.2-4.2-8.9-6.2-9.7-0.7c-0.1,0.7,0.6,1.2,1.2,0.7c1.1-1,2.1-1.9,3.6-1.6
			c1.4,0.3,2.6,1.5,3.7,2.4C164.2,84.8,165,84.1,164.8,83.5"/>
		<path fill="#231608" d="M162.4,100.4c0-1.8-0.2-3.6-0.6-5.3c0-0.2-0.1-0.4-0.2-0.5c-0.4-1.1-2.2-1.3-2.5-0.1
			c-0.2,0.2-0.3,0.5-0.3,0.8c0,0.3,0,0.7,0,1c-0.1,1,0,2.1,0.2,3.1c0,0.4,0.1,0.8,0.1,1.2c0.1,1.1,1.3,1.6,2.1,1.2
			C161.9,101.6,162.5,101.1,162.4,100.4"/>
		<path fill="#231608" d="M135,101.4c0-1.8-0.2-3.6-0.6-5.3c0-0.2-0.1-0.4-0.2-0.5c-0.4-1.1-2.2-1.3-2.5-0.1
			c-0.2,0.2-0.3,0.5-0.3,0.8c0,0.3,0,0.7,0,1c-0.1,1,0,2.1,0.2,3.1c0,0.4,0.1,0.8,0.1,1.2c0.1,1.1,1.3,1.6,2.1,1.2
			C134.4,102.7,135,102.2,135,101.4"/>
		<path fill="#231608" d="M146.1,109.1c-1.8-1.3-5.1-1.9-6.9-0.2c-2.2,2.2,1.8,4.8,3.7,4.8c0.5,0,0.9-0.7,0.5-1.1
			c-0.8-0.8-2-1-2.8-1.8c-0.1-0.1-0.2-0.2-0.2-0.3c0,0,0-0.1,0-0.1c0,0.1,0,0,0-0.1c0,0,0,0,0,0c0.1-0.1,0.1-0.1,0.2-0.2
			c0.1-0.1,0.5-0.2,0.7-0.3c0.4-0.1,0.8-0.1,1.2-0.1c1,0,2.1,0.3,3.1,0.7C146.3,110.7,146.7,109.6,146.1,109.1"/>
		<path fill="#231608" d="M160.9,115.5c-0.1-0.4-0.6-0.8-1.1-0.6c-6.6,2.6-13.1,3-20.2,3.4c-0.9,0-0.9,1.4,0,1.4c0.4,0,0.9,0,1.3,0
			c0,0.1,0.1,0.3,0.2,0.4c3.2,3.4,6.2,8.8,11.8,7.3C158.4,126,162.7,121.3,160.9,115.5 M143.2,119.7c5.5,0,11-0.6,16.1-2.7
			c0.1,0.7,0.1,1.5,0,2.2c-2-0.4-4.9,0.6-6.6,1.2c-2,0.8-4.1,2.1-5,4.1C145.8,123.3,144.7,121.2,143.2,119.7 M149.1,125.1
			c1.2-1.8,3-2.8,5.2-3.5c1.4-0.5,3-0.4,4.5-0.6C157,124.2,152.8,126.3,149.1,125.1"/>
		<path fill="#231608" d="M169.2,100.9c-1.1,0.3-2,1.2-2.9,1.9c-0.6,0.5,0.2,1.2,0.8,1c1-0.5,2-1.1,2.7-1.9
			C170.1,101.5,169.7,100.7,169.2,100.9"/>
		<path fill="#231608" d="M171.8,101.8c-0.8,0.2-1.4,0.8-2,1.3c-0.5,0.4,0.2,1.3,0.7,0.9c0.6-0.4,1.3-0.8,1.8-1.4
			C172.8,102.3,172.3,101.7,171.8,101.8"/>
		<path fill="#231608" d="M132.4,107.2c-0.5,0.1-1.1,0.5-1.5,0.8c-0.5,0.4,0.1,1.2,0.6,1.1c0.7-0.1,1.4-0.5,1.6-1.2
			C133.3,107.5,132.8,107.1,132.4,107.2"/>
		<path fill="#353535" d="M247.7,254.3c-10.5-0.5-21.5-0.7-32.1,0c2.5-2.8,4.4-6.1,5.6-9.5c2.2-6.2,1.7-13.6-0.8-20.1c0.1-1,0-2,0-3
			c0-1.7-0.1-3.3-0.3-4.9c0.3-8.9-1.4-18.1-2.7-26.7c-1.8-11.6-4.4-23.1-7.8-34.4c-4.1-14-16.4-30.1-32.8-28.3c0-0.1,0-0.2-0.1-0.3
			c-0.2-1-0.3-2.1-0.7-3c2.1-0.6,4-2.5,5.5-3.8c2-1.9,3.8-4,5.3-6.3c8.5,3.7,14.4-9.1,12.9-15.9c0-0.1-0.1-0.2-0.1-0.3
			c4.8-3.1,7.4-10,9.4-15.2c2.5-6.5,3.6-13.8,2.1-20.6c-2.1-9.4-12.7-12.6-21.3-10.5c3.5-3.8,9.5-3.9,14.3-3.9c0.6,0,1-1,0.3-1.2
			c-5.4-2.4-13.8,0-16.7,5.3c-1-2.7-1-4.8,0.7-7.6c1.8-2.8,4.7-4.4,7.3-6.3c0.6-0.4,0.2-1.3-0.5-1.2c-4.4,0.8-10.2,6.2-10.7,11.3
			c-5.5-7.3-13.3-13-22.7-12.9c-11.6,0.2-24.3,7-33.4,13.8c-8.7,6.5-16.5,16.6-19.1,27.3c-2.4,10,6.1,18.9,15,21.7
			c0.2,3.6,0.6,7.3,1.3,10.7c1.7,8.9,5.9,17.8,13.5,23.1c2.3,1.6,4.9,2.6,7.6,3c-1.5,0.9-2.8,2-3.8,3.5c-2.4,3.6-4.3,8.6-4.9,13.4
			c0,0.1-0.1,0.2-0.1,0.2c-0.2,0.5-0.4,0.9-0.5,1.4c-1.3-1.9-2.6-3.8-4-5.6c-2.6-3.6-5.8-5.4-10.1-5.9c-6-0.7-12.6,0-18.7,0.3
			c-0.3-2.1-0.7-4.2-1.4-6.2c-0.1-0.6-0.3-1.2-0.6-1.8c0,0-0.1-0.1-0.1-0.1l-0.6-0.8c-0.5-0.5-1-0.9-1.6-1.1c0,0,0,0,0,0
			c-4.4-1.2-22.8-0.3-22.1,7.1c-0.1,0.9,0.1,1.9,0.1,2.8c0,1.1,0,2.2,0.2,3.3c0,0.4,0,0.7,0.1,1.1c0,0-0.1,0-0.1,0
			c-2.3,0.4-5,1.3-6.4,3.2c-1.3,1.6-0.8,4,0.8,5.1c-0.4,0.5-0.8,1-1.2,1.5c-1.2,1.9,0,3.3,1.6,4c-0.6,0.7-1.2,1.5-1.5,2.4
			c-0.8,2,0.5,3.3,2.1,3.8c-0.6,1.1-0.9,2.4-0.7,3.7c0.4,3.1,3.2,4.8,6.2,4.5c0,0.2,0,0.5,0,0.7c0.1,1.5-0.1,3.3,0.8,4.5
			c0.1,0.1,0.1,0.1,0.2,0.2c0.1,0.2,0.3,0.5,0.5,0.7c1.2,2.2,3.8,3.3,6.6,3.7c4.9,8.9,15.7,15.7,24.8,19.3
			c9.2,3.7,20.2-0.4,26.6-7.6c1.6,2.8,3.5,5.5,5.9,7.7c-0.4,2.6-0.6,5.2-1,7.7c-0.4,2.2-1.3,4.3-1.7,6.4c-1.3-0.5-3-0.1-4.3,0.8
			c0,0-0.1,0-0.1-0.1c-9.2-1.5-18.4-2.9-27.6-4.5c-7.2-1.3-15.7-3-22.9-1.2c-5.6,1.4-9.3,7.8-9.8,13.2c-0.3,4-0.7,9.9,2.5,13
			c-3.3,4.7-5,11.1-3.6,16.1c-6.9-0.5-14.4-0.6-21.2,0.2c-0.7,0.1-0.7,1,0,1.1c6.9,0.8,14.7,0.6,21.7,0.1c0.2,0.5,0.4,1,0.7,1.5
			c2.2,9.6,29,4.7,35.2,3.8c8.4-1.2,16.7-3.3,25-5.5c5.5,0.8,11.1,1.5,16.6,2.5c0,0,0,0,0.1,0c3,5.1,10.5,7.2,15.8,8.5
			c5.8,1.3,14.2,2.4,19.2-1.4c0,0,0,0,0,0c1.7-0.8,3.3-2.1,4.7-3.6c7.6,1.6,15-1.4,20.4-6.7c11,0.8,22.5,0.6,33.4,0.1
			C248.6,255.6,248.6,254.3,247.7,254.3 M216.1,199.2c-9.1,5.1-21.6,6-31.7,6.7c-8.8,0.6-17.7-0.7-26.5-1c1-0.6,2-1.2,2.9-1.9
			c10.1,1.2,20.9,0.5,31-0.6c7.6-0.8,17.3-1.5,24.1-5.5C216,197.7,216.1,198.4,216.1,199.2 M215.4,192.6c0.1,0.8,0.2,1.6,0.3,2.4
			c-8,4.4-18.9,5.1-27.7,5.9c-8.4,0.7-16.9,0.2-25.4,0.7c2.6-2.2,4.8-4.6,6.4-6.7c0.2,0.6,0.5,1.1,0.7,1.7c0.3,0.6,1.1,0.8,1.5,0.4
			c0.1,0,0.2-0.1,0.3-0.2c5.2-4.8,9.9-10.4,14.3-15.9c8.4,0.4,19.1-2,26.1-6.5C213.3,180.4,214.4,186.5,215.4,192.6 M211.6,172.8
			c-4.3,1.7-8.4,3.5-12.9,4.6c-3.8,0.9-7.6,1.3-11.5,1.8c0.2-0.2,0.4-0.5,0.5-0.7c0.6-0.7,1.2-1.5,1.8-2.2c3.6,0.2,7.5-0.8,10.9-1.8
			c3.3-1,7.9-2.4,10.3-5C211.1,170.5,211.4,171.6,211.6,172.8 M125.2,81.5c-0.6,4.4-0.9,9.1-0.8,13.7c-4.7-1.8-8.4-5-11.1-9.3
			c-3.2-5.3-1.1-11.4,1.3-16.4c4.3-8.8,11.3-16,19.4-21.4c8.1-5.4,18.2-9.7,27.9-10.5c11.2-0.9,17.4,8.7,24.1,15.7
			c0.1,0.1,0.2,0.2,0.4,0.2c0.1,0.3,0.4,0.6,0.8,0.6c9.8-1.2,20.2-1.2,21.8,11c1.4,10.6-3.8,22.2-10.3,30.4
			c-2.9-4.3-10.4-4.9-13.6-1.1c-0.3-1.9-0.8-3.8-1.1-5.7c-0.4-3-0.4-5.8-0.3-8.9c0-0.5-0.5-0.4-0.9-0.4h0c-12-1-22.3-3.2-28.4-14.9
			c0,0,0-0.2-0.1-0.2c0-0.7,0.1-1.4,0.1-2.1c0-1.3-1.9-1.3-2,0c-0.6,5.4-0.9,10.7-2.4,15.9c-8.6-2.4-12.8-12.9-12.5-21
			c0-0.7-1-0.8-1.2-0.2c-0.4,1.9-0.4,4-0.1,6.1C128.8,66,126.3,74.2,125.2,81.5 M137.9,127.7c-6.2-5.5-9-14.3-10.3-22.1
			c-1.1-6.9-1-14.3-0.5-21.3c0.6-7.5,2.7-15.3,9.4-19.3c1.7,7.2,7,14.2,14,15.5c0.6,0.1,1.2-0.2,1.4-0.8c1.3-3.9,1.9-8,2.3-12.1
			c4.5,9.4,17.9,15.3,27.9,13.1c-0.6,2.6-0.4,5.3-0.2,7.9c0.3,3.1,0.5,6.8,1.9,9.7c0.4,0.8,1.6,0.3,1.6-0.4v0
			c3-6.3,11.6-4.5,12.5,1.9c0.8,6.1-4.2,13.8-11,12c-0.4-0.1-0.7,0-0.9,0.3c-0.1,0.1-0.2,0.1-0.3,0.3c-1.5,2.1-3.1,4-4.9,5.8
			c-1.9,1.9-4.2,2.9-6.1,4.7c-0.3,0.3-0.3,0.6-0.2,0.9c-0.2,1.1,0,2.3,0.2,3.4c0.1,0.9,0.1,2,0.5,2.9c-0.9,3.9-3.3,7-6.7,9.3
			c-1.7,1.2-3.7,1.9-5.8,1.5c-3.2-0.6-3-3.1-2.1-5.3c0.1,0.3,0.2,0.6,0.5,0.9c0.3,0.3,0.9,0.2,1.1-0.1c0.5-0.8,0.2-1.7,0-2.6
			c-0.1-0.6-0.2-1.2-0.4-1.8c2.3-1.2,4.4-2.8,6.2-4.5c0.5-0.5-0.1-1.3-0.8-1c-4.2,2.2-7.8,4.5-12.2,5.7c-0.8,0.1-1.7,0.3-2.5,0.5
			c-0.4,0-0.8,0.1-1.2,0.1C146.3,133.1,141.6,130.9,137.9,127.7 M143.5,141.5c1.8-3.9,5.1-5.6,8.8-6.6c2-0.2,4.1-0.7,6-1.4
			c0.6-0.1,1.2-0.3,1.8-0.4c0.1,0,0.1,0,0.1-0.1c0,0.1,0,0.2,0,0.3c-4.8,3.6-1.3,10,4.3,9.6c5.9-0.4,12.1-7.3,12.6-13
			c0-0.1,0-0.2,0-0.2c0-0.1,0-0.3,0-0.4c8.2,0.6,14.8,3.5,20.8,9.6c6.7,6.8,9,15.9,11.4,24.8c0.4,1.4,0.7,2.8,1.1,4.1
			c-3.2,1.3-6,3.1-9.3,4.3c-3.3,1.2-6.7,1.8-10.1,2.2c3.1-4,6.3-8.4,7.3-13c0.2-0.8-0.8-1.2-1.3-0.6c-4.6,6.2-8.3,13-13.2,19
			c-4.1,5-8.6,9.6-12.7,14.7c-1.5-8.4-7.4-18-14.6-22.4c9.4-8.6,16.3-20.5,23.8-30.7c0.4-0.5-0.5-1.1-0.9-0.7
			c-9,9.6-15.1,21.8-25,30.5c-0.4,0.3-0.4,0.8-0.2,1.1c0,0.1,0.1,0.2,0.2,0.3c0.2,0.2,0.4,0.4,0.5,0.6c-1.3,0.6-2.5,1.3-3.4,2.3
			c-0.6-1-1.2-2-1.7-2.9c0.2-3.1-0.4-6.5-0.7-9.6c-0.4-3.9-0.7-7.9-1.2-11.8c-0.1-0.7-1.1-0.8-1.2,0c-0.2,4.5,0.1,9,0.5,13.5
			c0.1,1.2,0.1,2.6,0.2,3.9c-2.5-4.1-5.2-8.2-7.9-12.2C140.6,151.3,141.3,146.2,143.5,141.5 M120.1,144c7.9-0.3,11.2,4,15.1,10.1
			c1.9,3,3.8,6,5.8,9c0,0-0.1,0-0.1,0.1c-1.5,2.4-2.8,4.7-4.8,6.7c-2,2-4.4,3.4-7,4.4c-0.1-0.1-0.2-0.3-0.3-0.4
			c0-0.1-0.1-0.2-0.2-0.3c-1.2-1.2-2.8-1.8-3.8-3.3c-0.9-1.3-1.5-2.8-2.2-4.2c0.2-1-0.7-1.8-1.6-2.1c-1-0.3-2.1-0.3-3,0.3
			c-0.1,0.1-0.2,0.1-0.2,0.2c-0.1,0.1-0.3,0.1-0.4,0.2c-0.5,0.4-0.2,1.2,0.4,1.1c0.8-0.2,2.2-0.9,2.6,0.4c0.3,0.9,0,1.8-0.6,2.4
			c-1.2,1.2-3.4,1-4.8,0.4c-2.4-1.1-1.3-5-2.3-7.1c-0.2-0.7-0.4-1.5-0.4-2.3c0-0.7,0.1-1.4,0.1-2.1c0-0.3,0-0.6-0.1-0.9
			c0-0.1,0-0.1,0-0.2c0-0.1-0.1-0.2-0.1-0.3c-0.1-0.3-0.3-0.6-0.5-0.8c-0.3-1-0.6-2-0.2-2.9c0.6-1.2,2-1.8,3.2-2.2
			c0.4-0.1,0.8-0.2,1.1-0.3c0.9-0.2,2.2-0.4,2.8-1.2c0.3-0.3,0.2-0.9-0.3-1c-0.9-0.2-1.7,0.2-2.6,0.5c-0.2,0.1-0.3,0.1-0.5,0.2
			c0,0-0.1,0-0.1,0c-3.3-1-6.7-0.6-10-1.2c-0.1-1.1-0.2-2.3-0.3-3.4C110,144.2,115.1,144.2,120.1,144 M106.5,169
			c-0.1-1.3-0.1-2.6-0.2-3.9c0-4.5-0.5-9-0.7-13.3c-0.1-1-0.1-1.9-0.2-2.9c1.4,0.6,3.1,0.5,4.6,0.7c0.4,0.1,0.9,0.1,1.3,0.2
			c-0.6,0.4-1.1,1-1.4,1.6c-1,1.8-0.5,4.2,0.9,5.6c0,0.1,0,0.1,0,0.2c-0.6,1.9-0.9,4.5,0.5,6c-0.1,1.9,0.1,4.1,0.8,5.8
			c0.9,2.2,4.1,3.2,6.2,2.7c1.4-0.3,3-1.2,3.8-2.5c1,2.6,2.5,5.1,5.3,5.5c0.2,0.5,0.4,0.9,0.6,1.3c-0.1,0-0.2,0.1-0.3,0.2
			c-2.9,2.6-6.4,6.5-10.7,5.8c-3.5-0.6-8-4.1-10.4-6.6c0-0.9,0-1.9-0.1-2.8C106.9,171.4,106.6,170,106.5,169 M99.8,134.1
			c0.1,0.1,0.2,0.1,0.3,0.2c0.4,0.4,0.6,0.9,0.7,1.4c0.2,0.7,0.4,1.4,0.6,2.1c0,0.2,0.1,0.5,0.2,0.7c0.1,0.4,0.2,0.9,0.3,1.3
			c0.5,4.6,1.1,9.1,1.4,13.7c0.3,4.9,0.4,9.9,0.9,14.8c0,1.1,0.1,2.1,0.1,3.2c0,1.1,0,2.3,0.1,3.5c0,0.2,0,0.4-0.1,0.6
			c0,0.1,0,0.2,0,0.2c0,0.1,0,0.3-0.1,0.4c0,0.3-0.1,0.5-0.2,0.8c-0.2,0.7-0.6,1.2-1,1.8c-0.2,0.1-0.3,0.3-0.5,0.4
			c-0.2,0.2-0.4,0.3-0.7,0.4c0.2-0.6,0.4-1.3,0.5-1.9c0.6-6.2-0.4-12.8-0.8-19c-0.3-5.9-0.2-11.8-0.7-17.6c-0.2-2.5-0.7-5-2.1-7
			C99.1,134,99.4,134.1,99.8,134.1 M73.7,150.3c1.3-1.3,3.3-1.8,5-2.1c1.6-0.3,3.4-0.3,4.9,0.2c1.6,0.5,0.6,1.7,0.5,2.8
			c-2.1-0.7-4.5-0.5-6.4,0.4c-1.3,0.6-2.6,1.4-3.8,2.4C73.2,152.6,72.4,151.7,73.7,150.3 M74,156.3c1.1-1.2,2.6-2.1,4-2.9
			c1.3-0.7,2.5-0.9,4-0.8c0.9,0.1,2,0.3,2.7,0.9c1,0.8,0.1,2.1-0.3,2.9c0,0,0,0,0,0.1c0,0,0,0,0,0c-2.2-1.4-5.3-0.2-7.3,1
			c-0.8,0.5-1.7,1-2.4,1.7C72.9,158.5,72.7,157.7,74,156.3 M77.5,159.4c1.4-0.9,3.1-1.5,4.8-1.5c0.7,0,1.3,0.3,1.7,0.9
			c1,1.5,0.2,3-0.6,4.3c-1.8-0.5-4-0.4-5.3,0c-1.3,0.4-2.4,1.1-3.3,2.1C71.3,163.9,75.7,160.5,77.5,159.4 M78.6,169.8
			c-0.8,0.3-0.7,1.4,0.2,1.5c0.2,0,0.5,0,0.8,0c-0.1,0.7-0.2,1.4-0.2,2.1c-2-0.1-3.8-0.8-4.3-2.9c-0.5-2,0.8-3.9,2.5-4.9
			c1.8-1.1,4.7-1.2,6.4,0.2C86.3,167.6,79.6,169.4,78.6,169.8 M82,178.2c0-0.9-0.2-1.8-0.3-2.7c-0.1-1.5-0.2-3.1-0.5-4.6
			c2.7-0.7,5.8-2.5,5-5.3c-0.2-0.8-0.7-1.5-1.4-1.9c1.9-1.7,2.3-4.6,0.6-6.5c0,0,0.1,0,0.1-0.1c2-1.6,1.9-4,0-5.3
			c1.5-0.9,1-3.7-0.2-4.7c-1.2-0.9-2.7-1.1-4.2-1c0-0.2,0-0.5,0-0.7c0-0.1,0-0.2,0-0.2c0-0.6-0.1-1.2-0.2-1.7c0-0.5-0.1-1.1-0.1-1.6
			c0-1.3,0.1-2.5,0.2-3.8c3-3.7,10.3-4.6,15.5-4.3c3.8,5.7,2.2,14.3,2.5,20.8c0.3,5.4,0.6,10.8,0.9,16.1c0.2,3.2,0.8,6.5-1.1,9.1
			c-0.4,0.4-0.8,0.8-1.3,1.1c-0.8,0.5-1.8,0.7-2.5,1.2C89.8,183,83.9,182.4,82,178.2 M89.8,184.7c1.6,0.1,3.6,0,5.6-0.2
			c-0.3,0.3-0.5,0.5-0.8,0.8c-0.7,0.7-1.5,1.3-2.2,1.9C91.6,186.4,90.7,185.6,89.8,184.7 M128.1,200.9c-5.9,3.3-12.4,2-18.2-0.7
			c-6.4-3-11.5-7.3-16.4-12c0.7-0.5,1.4-1,2-1.6c0.8-0.7,1.8-1.5,2.2-2.5c1.9-0.4,3.8-1,5.1-2c0.5-0.3,1-0.6,1.5-1.1
			c1.1-0.7,1.7-1.9,2-3.4c0-0.1,0.1-0.2,0.1-0.3c2.6,3.4,7.4,6.3,11.3,6.9c4,0.7,8.8-3.3,11.2-6.5c2.2,4.7,4.8,9.2,7.3,13.7
			c0.5,1,1.1,2,1.6,2.9C134.7,196.8,131.6,199,128.1,200.9 M141.6,196.1c-4-6.6-6.8-14.3-11.4-20.5c4.9-1.5,10.2-6,11.9-10.8
			c3.8,5.9,7.8,11.8,12,17.3c0.4,0.6,1.4,0.1,1-0.6c-0.8-1.4-1.5-2.7-2.3-4.1c0.1,0,0.3-0.1,0.4-0.2c1.1-0.9,2.3-1.6,3.3-2.5
			c2.5,2.6,4.9,5.2,6.9,8.3c2.1,3.1,3.5,6.5,4.9,9.9c-3.7,3.3-7.1,6.9-11.2,9.8C150.2,207.2,144.9,201.6,141.6,196.1 M145.9,212.3
			c0.5-2.2,0.9-4.5,0.7-6.8c0,0,0.1,0,0.1,0.1c-0.2,0.4,0,0.9,0.6,1c12.7,1.6,26.1,2.4,39,1.5c5.7-0.4,11.3-1.4,16.8-2.5
			c4.5-0.9,9.2-1.9,13.2-4.2c0.5,6.1,0.7,12.2,1.6,18.2c-2.3-3.7-5.3-6.9-9-8.9c-12.1-6.5-29.1,0-40.5,4.8
			c-6.4,2.7-12.6,5.7-18.8,8.9c-0.9-0.7-2.1-1.1-3.1-1.7c-1.1-0.6-1.9-1.5-2.8-2.3c0-0.1,0.1-0.3,0-0.5c0,0,0-0.1,0-0.1
			C144.8,217.6,145.3,214.8,145.9,212.3 M197.4,235.8c-10.5,5.8-23,8.4-34.5,11.4c-0.2,0.1-0.4,0.1-0.6,0.1
			c-0.1-0.1-0.2-0.3-0.4-0.4c-6.9-4.2-7.8-16.6-5.5-23.6c12.3-6.1,25.6-12.2,39.5-12.8c4.5-0.2,8.3,0.7,11.6,2.5
			c0.2,0.1,0.3,0.3,0.5,0.4c0.2,0.1,0.3,0.3,0.5,0.4c3.8,5.3,4.6,10.3,0.4,16.5c-3.5,5.2-9.3,8.2-15.3,9.2c1.5-0.8,3-1.7,4.4-2.7
			C198.7,236.4,198.1,235.4,197.4,235.8 M165.2,249.1c-1,1.3-1.7,3-1.8,4.6c-1-0.3-1.9-0.5-2.9-0.8c0.2-0.6,0.6-1.2,1-1.7
			c0.4-0.5,0.9-0.9,1.3-1.5C163.6,249.5,164.4,249.3,165.2,249.1 M159.7,248.1c-1,0.3-2,0.5-3,0.8c0-0.1-0.1-0.1-0.2-0.2
			c-6.1-5.5-8.4-14.6-5.7-22.3c1.4-0.7,2.7-1.4,4.1-2.1C152.4,231.7,153.1,243.1,159.7,248.1 M157.2,251.4c0.1-0.1,0.2-0.3,0.2-0.4
			c0,0,0.1,0,0.1,0c0.8-0.2,1.6-0.4,2.5-0.6c-0.4,0.6-0.7,1.4-0.9,2.1c-0.7-0.2-1.4-0.4-2.2-0.7C157,251.7,157.1,251.6,157.2,251.4
			 M136.9,220.4c0.2,0.1,0.4,0.2,0.6,0.1c0.8-0.2,1.6-0.4,2.4-0.6c0.7-0.2,1.2-0.1,1.7,0.2c0,0.1,0,0.1,0,0.2c0,0.2,0,0.4,0.1,0.5
			c0.2,1.5,1.8,2.7,2.9,3.5c0.6,0.4,1.4,1,2.3,1.4c-1,0.5-2.1,1-3.1,1.6c-1.7,0.9-3.4,1.8-5.2,2.7c-5.3-3.5-11.1-6.7-16.7-9.7
			c-0.9-0.5-1.7-0.9-2.6-1.4C125.2,219.9,131.1,220.7,136.9,220.4 M127.4,235.8c0,0,0,0.1,0,0.1c-2.5,1.4-5,2.8-7.3,4.3
			c0.5-2.2,0.8-4.4,1.9-6.6c1.5-3,4.2-5.3,7.3-6.5c0.1,0,0.1-0.1,0.2-0.1c0.8,0.5,1.6,1,2.4,1.5c-1.2,0.7-2.1,1.7-2.8,2.8
			C128.3,232.5,127.2,234.3,127.4,235.8 M130.1,232.9c0.7-1.3,1.7-2.6,3-3.5c0,0,0.1-0.1,0.1-0.1c0.3,0.2,0.6,0.3,0.9,0.4
			c-0.1,0-0.2,0.1-0.3,0.2c-0.9,1.1-2,2.4-2.3,3.8c0,0,0,0,0,0c-0.8,0.4-1.5,0.8-2.3,1.2C129.5,234.3,129.7,233.5,130.1,232.9
			 M134.7,230.6c0.1-0.2,0.1-0.4,0-0.5c0.6,0.3,1.3,0.6,2,0.9c-1.1,0.5-2.1,1.1-3.2,1.7C133.8,232,134.2,231.3,134.7,230.6
			 M80.3,223.6c2.2-8.7,10.5-9,17.8-8.3c4.1,0.4,8.1,1.1,12.2,1.9c4.8,1.4,9.2,3.8,13.7,6.4c1.2,0.7,2.4,1.5,3.6,2.3
			c-3.1,1-5.4,3.1-7.2,6c-1.5,2.3-2.9,6-2.6,9c-5.3-1.1-10.3-4.2-15.3-6.2c-3.5-1.4-8.6-3.1-12.5-1.9c-3.4,0.2-6.5,2.2-9,5
			C78.7,234,79.3,227.3,80.3,223.6 M114.8,246c0.5,0,0.9,0,1.4,0c-0.1,1.9,0,4.1,0.6,6.1c-0.6,0-1.3,0-1.9,0
			C115.2,250.2,115.2,248,114.8,246 M116.4,244.3c-1.8-0.6-3.9-0.6-5.8-0.9c-1.8-0.3-3.8-0.8-5.7-0.6c-0.2-1.9-0.7-3.7-1.7-5.2
			c1.1,0.5,2.2,1,3.3,1.5c2.9,1.3,6.7,3.8,10.2,3.7C116.6,243.2,116.5,243.7,116.4,244.3 M113.2,245.9c-0.1,2.1-0.1,4.2-0.1,6.3
			c-0.7,0-1.3,0-2,0c0.2-0.8,0.3-1.7,0.4-2.6c0.2-1.3,0.3-2.6,0.3-4C112.3,245.7,112.8,245.8,113.2,245.9 M107.9,244.9
			c0.7,0.1,1.5,0.3,2.2,0.4c0.1,0,0.3,0.1,0.4,0.1c-0.2,1.3-0.4,2.5-0.6,3.8c-0.2,1-0.4,2-0.4,3c-0.9,0-1.8,0.1-2.6,0.1
			C107.5,250,108,247.3,107.9,244.9 M106.5,244.6c-0.2,1.2-0.4,2.4-0.6,3.6c-0.2,1.4-0.6,2.8-0.7,4.2c-0.7,0.1-1.4,0.1-2.1,0.2
			c0.5-1.2,0.8-2.3,1.1-3.2c0.5-1.7,0.8-3.5,0.8-5.3C105.5,244.4,106,244.5,106.5,244.6 M79.1,257.7c-1.6-4.8-1.1-9.5,1.1-14
			c2.4-4.8,6.2-7.3,10.8-9c0,0,0.1,0,0.1,0c-3.7,2.1-6.3,6.1-7.7,10.1c-1.5,4.2-1.8,12.1,1.7,16C82.6,260.3,80.3,259.4,79.1,257.7
			 M93.5,261.1c-1.6,0.1-3.3,0.1-4.9,0c-4.5-4-4.7-10.3-3.2-15.8c1.5-5.2,5.1-8.7,10-10.1c0.4,0,0.8,0.1,1.2,0.2
			c1.2,0.2,2.4,0.6,3.6,1C107.1,243.5,101.2,256.6,93.5,261.1 M98.5,260.8c-0.2,0-0.4,0-0.6,0c1.9-1.6,3.4-4,4.5-6.5
			c4.7,0.8,10.3,0.4,15-0.4c0.7,1.7,1.8,3.1,3.2,3.9C113.3,259.5,105.9,260.3,98.5,260.8 M123.5,257.2c-0.1,0-0.2,0.1-0.4,0.1
			c0,0-0.1-0.1-0.1-0.1c-2.7-1.8-4-3.4-4.7-6.7c-0.6-2.5-0.3-5,0-7.5c9.2-4,18.1-9,27-13.9c-2,6.7-0.1,17.2,5.8,21.1
			C142,252.6,132.7,254.9,123.5,257.2 M153.4,256.8c-3.9-0.7-7.8-1.3-11.7-1.6c4.2-1.2,8.3-2.3,12.5-3.4
			C153.2,253.2,153,255.2,153.4,256.8 M153.2,249.7C153.2,249.7,153.2,249.7,153.2,249.7c-5.8-5.7-8.2-13.6-6.2-21.5
			c0.6-0.3,1.3-0.7,1.9-1c-2.4,7.2-0.3,17.6,5.9,22.1C154.3,249.5,153.8,249.6,153.2,249.7 M155.1,257.2c0,0-0.1,0-0.1-0.1
			c-0.2-1-0.1-2,0.1-2.9c0.1-0.5,0.4-0.8,0.7-1.2c3.6,2.2,8.2,3.1,12.3,3.8c-0.6,2.6-0.5,5.4,0.7,7.7
			C163.9,263.2,159.1,260.8,155.1,257.2 M168.6,255c-1.3-0.3-2.5-0.6-3.8-1c0.5-2.1,2-3.6,2.6-5.6c1.7-0.4,3.4-0.9,5.2-1.3
			c-1.7,2.1-2.8,4.8-3.6,6.9C168.8,254.4,168.7,254.7,168.6,255 M182.8,265.7c-4,0.4-8.1,0.2-11.9-0.6c-4.3-6.2,1-14.1,5.5-18.8
			c3.7-1.1,7.4-2.3,10.9-3.7c0.7,0.3,1.4,0.5,2,0.8c3.1,3.9,2.7,8.2,1.2,12.7C188.9,260.3,186,262.8,182.8,265.7 M195.2,254.4
			c-0.8,4.5-3.9,7.9-7.7,10c4.8-4.8,7.4-13.6,4.6-19.3C194.8,247.1,196.1,250,195.2,254.4 M195.5,260.3c1.3-2.1,2.2-4.4,2.5-6.6
			c0.5-4.2-1.5-9.8-5.3-12.2c7.5,0.3,14.7-5.2,18.7-11.1c2.2-3.2,3.1-8,2.3-12.1c3.5,4.4,5.6,10.3,6,16.7
			C220.7,248.6,209.2,261.1,195.5,260.3"/>
		<path fill="#231608" d="M91.3,139.2c-0.3-0.5-0.6-1-1.1-1.3c-0.6-0.7-2-0.8-2.8-0.7c-1.1,0.2-2.2,1.1-2.5,2.2
			c-0.5,2.1,2,3.9,3.9,3.7C90.8,143,92.2,141.1,91.3,139.2 M89.1,141.2c-0.9,0.3-2.1-0.2-2.4-1.1c-0.1-0.4,0.2-0.7,0.6-0.9
			c0,0,0.1,0,0.1,0c0.7-0.3,1.6-0.1,2.1,0.6C89.9,140.4,89.8,140.9,89.1,141.2"/>
		<path fill="#231608" d="M154,198.5c-0.3,0.7-0.6,1.5-0.4,2.3c0.1,0.4,0.6,0.5,0.9,0.2c0.5-0.6,0.6-1.4,0.8-2.1
			C155.4,198,154.3,197.7,154,198.5"/>
		<path fill="#231608" d="M150.9,198c0,0.5-0.2,1-0.2,1.5c0,0.5,0.6,0.8,1,0.4c0.5-0.5,0.5-1.2,0.5-1.9
			C152.2,197.2,150.9,197.2,150.9,198"/>
		<path fill="#231608" d="M74.1,108.3c-0.3-0.8-1.6-0.7-1.5,0.2c0.4,3.9,1.9,7.7,3.4,11.3c0.4,0.9,1.6,0.2,1.5-0.6
			C76.9,115.5,75.3,111.9,74.1,108.3"/>
		<path fill="#231608" d="M68.6,132.1c-3.7-3-8.3-5.4-12.5-7.6c-0.7-0.4-1.4,0.5-0.8,1.1c3.5,3.2,8.1,5.9,12.4,7.7
			C68.4,133.6,69.3,132.7,68.6,132.1"/>
		<path fill="#231608" d="M67.2,146.4c-4.1,0.5-8.2,1.8-12.2,3.1c-0.9,0.3-0.5,1.5,0.4,1.4c4-0.8,8.2-1.7,11.9-3.3
			C68,147.4,68,146.4,67.2,146.4"/>
		<path fill="#231608" d="M198.9,213.1c-0.9-0.5-2.1-0.3-3.1-0.1c-0.9,0.2-0.5,1.4,0.4,1.3c0.9-0.1,1.8,0.1,2.6-0.1
			C199.3,214.1,199.3,213.3,198.9,213.1"/>
		<path fill="#231608" d="M197.3,216.1c-0.3-0.1-0.7-0.1-1-0.1c-0.8,0-0.8,1.2,0,1.2c0.3,0,0.7,0,1-0.1
			C197.8,217,197.8,216.2,197.3,216.1"/>
		<path fill="#231608" d="M206.8,252.2c-0.1-0.4-0.5-0.9-1-0.6c-0.4,0.3-0.6,0.8-0.8,1.4c-0.2,0.7-0.3,1.4-0.3,2.1
			c0,0.8,1.1,0.8,1.3,0.2c0.2-0.6,0.4-1.1,0.5-1.7c0.1-0.3,0.1-0.5,0.2-0.8c0-0.1,0-0.3,0.1-0.4
			C206.8,252.5,206.8,251.9,206.8,252.2"/>
		<path fill="#231608" d="M201.8,253.9c-0.2,0.6-0.4,1.3-0.4,1.9c0,0.6,0.8,0.8,1.1,0.3c0.4-0.6,0.5-1.2,0.7-1.9
			C203.4,253.4,202,253.1,201.8,253.9"/>
	</g>
</g>
</svg>
