<?xml version="1.0" encoding="utf-8"?>
<!-- Generator: Adobe Illustrator 23.0.1, SVG Export Plug-In . SVG Version: 6.00 Build 0)  -->
<svg version="1.1" id="Camada_1" xmlns="http://www.w3.org/2000/svg" xmlns:xlink="http://www.w3.org/1999/xlink" x="0px" y="0px"
	 viewBox="0 0 128.6 129.2" style="enable-background:new 0 0 128.6 129.2;" xml:space="preserve">
<style type="text/css">
	.st0{fill:#C0A8D8;}
	.st1{fill:#FFFFFF;}
	.st2{fill:none;stroke:#FFFFFF;stroke-width:14;stroke-miterlimit:10;}
	.st3{fill:#DC3545;}
	.st4{fill:#FEFAF7;}
	.st5{clip-path:url(#SVGID_2_);}
	.st6{fill:#353535;}
	.st7{fill:url(#SVGID_3_);}
	.st8{fill:#303030;}
</style>
<ellipse class="st0" cx="-1084.3" cy="79.7" rx="205.2" ry="28.3"/>
<g>
	
		<image style="overflow:visible;opacity:0.75;" width="426" height="844" xlink:href="45C0157E.png"  transform="matrix(1 0 0 1 -1301.1852 -371.9462)">
	</image>
	<g>
		<path class="st1" d="M-982.8,105.4c-5.4-4.3-10.8-7.8-11.7-16.1c-0.4-3.9-5.3-8.8-9.3-10.4c-7.6-3.2-16-5.2-24.3-6.2
			c-6.4-0.8-11.8-0.7-16.9-6.3c-3.2-3.6-9.7-4.8-14.9-5.7c-16-2.8-32.2-4.8-48.3-7.5c-9.5-1.6-16-7.1-20.7-15.7
			c-9.6-17.7-10-36.8-9.4-56.1c0.1-1.6,1.5-3.7,3-4.6c11-7.1,15.3-16,12.1-28.5c-4.8-18.5-3.6-37-1.1-55.5c0.3-2.2,2.5-5.2,4.6-5.9
			c6.8-2.4,10.8-7.1,12.2-13.7c1.5-7.4,1.7-15,3.1-22.4c0.5-2.7,2.1-6.3,4.2-7.4c10.1-5.1,13.9-13.6,14.6-24.1
			c1.5-22-1.7-43.9-12.8-62.5c-9-14.9-5.3-25.8,2.2-38c3.2-5.2,7.1-10,10.3-15.2c4.7-7.7,9.6-15.3,13.6-23.4
			c3.9-8,1.5-16.9-4.8-22.2c-5.8-4.9-14.8-5.4-22-0.4c-4.5,3.1-9.2,6.7-12,11.2c-8.1,12.7-15.2,26-22.9,39c-1.5,2.6-3.6,7-5.4,7
			c-8.8,0-17.6-1.2-28-2.1c4.3-9.2,8.5-17.4,12-25.9c3.4-8.3,7.6-16.6,8.8-25.3c1.8-12.6-7.1-19.6-19.7-17.1
			c-8.3,1.6-14,6.7-18.3,13.7c-13.5,21.8-17.7,45.9-18,71c-0.2,16.3-3.1,20-18.4,24.7c-11.7,3.5-23.5,6.8-34.9,11.2
			c-12.9,5.1-16.2,15.6-14,27.2c2.8,14.8,13,25.1,19.3,37.7c2.4,4.9,2.3,7.4-0.3,11.4c-7,10.7-14,21.4-20.6,32.4
			c-5.5,9.2-6.8,18.6,2.3,27.1c-2.7,4.2-5.5,7.9-7.6,12c-5.4,10.9-12.1,21.8-4.3,34.5c0.7,1.2,0.4,3.4-0.2,4.8
			c-5.7,12.7-5.1,24.2,5.6,33.5c-6.6,13.6-14.9,26.1-4.7,40.7c0.7,1,0.1,3.3-0.5,4.8c-7.2,17.6-8.7,34,9.8,45.7
			c-2.9,12.7-7.2,25,2.9,36.2c0.8,0.9-0.2,3.8-0.8,5.6c-3.3,10.4-4.6,20.5,2.9,28.9c-3.3,6.6-7.4,12.3-9,18.6
			c-1.3,5.2-2,13,0.8,16.5c6.1,7.5,12.7,13.7,12.1,24.5c-0.1,1.9,2.5,4.8,4.6,6c5.7,3.1,6.7,8.2,7.3,13.9c0.7,7.2,1.7,14.4,2.4,21.7
			c4.1,44.1,8,88.1,12.4,132.2c1.2,12.4,2.9,24.9,5.8,37c2.3,9.2,10.7,13.6,19.6,12.7c8.6-0.8,14.9-6.1,16.2-14.6
			c1-6.6,1.7-13.4,1.5-20c-1.2-35.5-2.8-71-4-106.4c-0.2-5.3,0.5-10.6,0.9-17.1c6.5,3.5,11.6,5.7,16,8.9c2.4,1.8,4.8,5.2,4.9,8
			c1.4,23.8,2.2,47.7,3.3,71.5c0.8,18,1.7,36.1,2.7,54.1c0.2,3.7,1,7.5,2,11.1c2.7,8.9,9.9,14,19,13.7c9.5-0.3,16.4-5,17.2-15.2
			c1.7-22.6,2.1-45.3,2.6-67.9c0.4-14.6,0.1-29.3,0.1-43.9c1-0.1,2-0.2,3-0.3c0.8,3.5,2,7,2.3,10.5c1.2,14.5,2,29,3.2,43.6
			c1.1,13.6,2.2,27.2,4.2,40.7c1.1,7.4,6.5,13.8,14,13.4c5.8-0.3,12-4.5,16.9-8.4c2.8-2.2,4-7.1,4.9-10.9
			c2.4-10.5,4.2-21.1,6.5-31.6c1.9-8.8,4.2-17.5,6.3-26.2c0.7,0.1,1.5,0.3,2.2,0.4c0.4,4,0.9,8,1.2,12c1.8,23.2,3,46.4,5.5,69.6
			c1.2,10.6,8,16.5,16,16.9c7.6,0.4,15.5-5.2,18.6-14.6c2.5-7.4,4.5-15.1,5.6-22.9c5-36.4,19.2-69.3,37.3-99.4
			c12.6,5,24,10,35.8,13.8c3.1,1,7.5-2,11.2-3.4c2.3-0.9,4.4-2.9,6.8-3.2c14.9-1.8,19.8-5.8,20.9-21.2
			C-900.4,216.7-922.5,153-982.8,105.4z M-1249.7,205c-0.1-0.4-0.2-0.7-0.3-1.1C-1249.9,204.3-1249.8,204.6-1249.7,205
			c0.4-0.3,0.9-0.5,1.3-0.8C-1248.8,204.4-1249.2,204.7-1249.7,205z"/>
		<path class="st2" d="M-982.8,105.4c-5.4-4.3-10.8-7.8-11.7-16.1c-0.4-3.9-5.3-8.8-9.3-10.4c-7.6-3.2-16-5.2-24.3-6.2
			c-6.4-0.8-11.8-0.7-16.9-6.3c-3.2-3.6-9.7-4.8-14.9-5.7c-16-2.8-32.2-4.8-48.3-7.5c-9.5-1.6-16-7.1-20.7-15.7
			c-9.6-17.7-10-36.8-9.4-56.1c0.1-1.6,1.5-3.7,3-4.6c11-7.1,15.3-16,12.1-28.5c-4.8-18.5-3.6-37-1.1-55.5c0.3-2.2,2.5-5.2,4.6-5.9
			c6.8-2.4,10.8-7.1,12.2-13.7c1.5-7.4,1.7-15,3.1-22.4c0.5-2.7,2.1-6.3,4.2-7.4c10.1-5.1,13.9-13.6,14.6-24.1
			c1.5-22-1.7-43.9-12.8-62.5c-9-14.9-5.3-25.8,2.2-38c3.2-5.2,7.1-10,10.3-15.2c4.7-7.7,9.6-15.3,13.6-23.4
			c3.9-8,1.5-16.9-4.8-22.2c-5.8-4.9-14.8-5.4-22-0.4c-4.5,3.1-9.2,6.7-12,11.2c-8.1,12.7-15.2,26-22.9,39c-1.5,2.6-3.6,7-5.4,7
			c-8.8,0-17.6-1.2-28-2.1c4.3-9.2,8.5-17.4,12-25.9c3.4-8.3,7.6-16.6,8.8-25.3c1.8-12.6-7.1-19.6-19.7-17.1
			c-8.3,1.6-14,6.7-18.3,13.7c-13.5,21.8-17.7,45.9-18,71c-0.2,16.3-3.1,20-18.4,24.7c-11.7,3.5-23.5,6.8-34.9,11.2
			c-12.9,5.1-16.2,15.6-14,27.2c2.8,14.8,13,25.1,19.3,37.7c2.4,4.9,2.3,7.4-0.3,11.4c-7,10.7-14,21.4-20.6,32.4
			c-5.5,9.2-6.8,18.6,2.3,27.1c-2.7,4.2-5.5,7.9-7.6,12c-5.4,10.9-12.1,21.8-4.3,34.5c0.7,1.2,0.4,3.4-0.2,4.8
			c-5.7,12.7-5.1,24.2,5.6,33.5c-6.6,13.6-14.9,26.1-4.7,40.7c0.7,1,0.1,3.3-0.5,4.8c-7.2,17.6-8.7,34,9.8,45.7
			c-2.9,12.7-7.2,25,2.9,36.2c0.8,0.9-0.2,3.8-0.8,5.6c-3.3,10.4-4.6,20.5,2.9,28.9c-3.3,6.6-7.4,12.3-9,18.6
			c-1.3,5.2-2,13,0.8,16.5c6.1,7.5,12.7,13.7,12.1,24.5c-0.1,1.9,2.5,4.8,4.6,6c5.7,3.1,6.7,8.2,7.3,13.9c0.7,7.2,1.7,14.4,2.4,21.7
			c4.1,44.1,8,88.1,12.4,132.2c1.2,12.4,2.9,24.9,5.8,37c2.3,9.2,10.7,13.6,19.6,12.7c8.6-0.8,14.9-6.1,16.2-14.6
			c1-6.6,1.7-13.4,1.5-20c-1.2-35.5-2.8-71-4-106.4c-0.2-5.3,0.5-10.6,0.9-17.1c6.5,3.5,11.6,5.7,16,8.9c2.4,1.8,4.8,5.2,4.9,8
			c1.4,23.8,2.2,47.7,3.3,71.5c0.8,18,1.7,36.1,2.7,54.1c0.2,3.7,1,7.5,2,11.1c2.7,8.9,9.9,14,19,13.7c9.5-0.3,16.4-5,17.2-15.2
			c1.7-22.6,2.1-45.3,2.6-67.9c0.4-14.6,0.1-29.3,0.1-43.9c1-0.1,2-0.2,3-0.3c0.8,3.5,2,7,2.3,10.5c1.2,14.5,2,29,3.2,43.6
			c1.1,13.6,2.2,27.2,4.2,40.7c1.1,7.4,6.5,13.8,14,13.4c5.8-0.3,12-4.5,16.9-8.4c2.8-2.2,4-7.1,4.9-10.9
			c2.4-10.5,4.2-21.1,6.5-31.6c1.9-8.8,4.2-17.5,6.3-26.2c0.7,0.1,1.5,0.3,2.2,0.4c0.4,4,0.9,8,1.2,12c1.8,23.2,3,46.4,5.5,69.6
			c1.2,10.6,8,16.5,16,16.9c7.6,0.4,15.5-5.2,18.6-14.6c2.5-7.4,4.5-15.1,5.6-22.9c5-36.4,19.2-69.3,37.3-99.4
			c12.6,5,24,10,35.8,13.8c3.1,1,7.5-2,11.2-3.4c2.3-0.9,4.4-2.9,6.8-3.2c14.9-1.8,19.8-5.8,20.9-21.2
			C-900.4,216.7-922.5,153-982.8,105.4z M-1249.7,205c-0.1-0.4-0.2-0.7-0.3-1.1C-1249.9,204.3-1249.8,204.6-1249.7,205
			c0.4-0.3,0.9-0.5,1.3-0.8C-1248.8,204.4-1249.2,204.7-1249.7,205z"/>
	</g>
</g>
<g>
	<path class="st3" d="M113.2,128.9H15.4C6.9,128.9,0,122,0,113.5V15.7C0,7.2,6.9,0.3,15.4,0.3h97.8c8.5,0,15.4,6.9,15.4,15.4v97.8
		C128.6,122,121.7,128.9,113.2,128.9z"/>
	<path class="st4" d="M24.2,126.8v-9.4l5.7-14.3L27,97.6L33,85l4-7l-4.7-11.1l-2.7-7.5l2-4.8l13.7-5l8.2-4.7l0.7-5.4l1.5-12.1
		l0.2-9.8l3.4-5.1l4.8-3.9c0,0,3.8-2.3,4.3-2.3c0.5,0,1.8-1.5,2.5,0.8c0.7,2.3-1,10.7-1.3,11.1c-0.3,0.3-5.5,13.8-5.5,13.8L78.2,34
		l8.2-14.7l8.2-8.2l5.4,1.2l1,1.8l-1.7,6l-6.7,10.2l-4.4,9.6l2,8.9l6,13.6v11.1l-5.4,6.4l-3.5,4L87,92.4l-4.7,3.9l-2.2,3.2
		l-0.3,19.6l0.8,3.4v3.7l-1.2,2.8h-2H24.2V126.8z"/>
	<g>
		<defs>
			<path id="SVGID_1_" d="M113.2,128.9H15.4C6.9,128.9,0,122,0,113.5V15.7C0,7.2,6.9,0.3,15.4,0.3h97.8c8.5,0,15.4,6.9,15.4,15.4
				v97.8C128.6,122,121.7,128.9,113.2,128.9z"/>
		</defs>
		<clipPath id="SVGID_2_">
			<use xlink:href="#SVGID_1_"  style="overflow:visible;"/>
		</clipPath>
		<g class="st5">
			<path class="st1" d="M78.1,295c-0.3,3.1-0.3,5.8-1,8.2c-0.3,1.2-1.9,2.8-2.8,2.8c-1.3,0-3.4-1.2-3.7-2.3
				c-0.9-2.6-0.9-5.5-1.4-8.7C72.5,295,75.1,295,78.1,295z"/>
			<path class="st6" d="M138.3,257.9C131.4,269.4,126,282,124,296c-0.4,3-1.2,5.9-2.1,8.8c-1.2,3.6-4.2,5.8-7.1,5.6
				c-3.1-0.2-5.7-2.4-6.1-6.5c-1-8.9-1.4-17.8-2.1-26.7c-0.1-1.5-0.3-3.1-0.5-4.6c-0.3-0.1-0.6-0.1-0.9-0.2c-0.8,3.3-1.7,6.7-2.4,10
				c-0.9,4-1.6,8.1-2.5,12.1c-0.3,1.5-0.8,3.4-1.9,4.2c-1.9,1.5-4.2,3.1-6.5,3.2c-2.9,0.2-4.9-2.3-5.4-5.1
				c-0.8-5.2-1.2-10.4-1.6-15.6c-0.5-5.6-0.8-11.1-1.2-16.7c-0.1-1.4-0.6-2.7-0.9-4c-0.4,0-0.8,0.1-1.2,0.1c0,5.6,0.1,11.2,0,16.8
				c-0.2,8.7-0.4,17.4-1,26c-0.3,3.9-2.9,5.7-6.6,5.8c-3.5,0.1-6.2-1.8-7.3-5.3c-0.4-1.4-0.7-2.8-0.8-4.3c-0.4-6.9-0.7-13.8-1-20.7
				c-0.4-9.1-0.7-18.3-1.3-27.4c-0.1-1.1-1-2.4-1.9-3.1c-1.7-1.2-3.6-2.1-6.1-3.4c-0.1,2.5-0.4,4.5-0.3,6.6
				c0.5,13.6,1.1,27.2,1.5,40.8c0.1,2.5-0.2,5.1-0.6,7.7c-0.5,3.2-2.9,5.3-6.2,5.6c-3.4,0.3-6.6-1.4-7.5-4.9
				c-1.1-4.6-1.8-9.4-2.2-14.2c-1.7-16.9-3.2-33.8-4.7-50.6c-0.3-2.8-0.7-5.5-0.9-8.3c-0.2-2.2-0.6-4.1-2.8-5.3
				c-0.8-0.4-1.8-1.5-1.8-2.3c0.2-4.1-2.3-6.5-4.6-9.4c-1.1-1.3-0.8-4.3-0.3-6.3c0.6-2.4,2.2-4.6,3.4-7.1c-2.9-3.2-2.4-7.1-1.1-11.1
				c0.2-0.7,0.6-1.8,0.3-2.1c-3.9-4.3-2.2-9-1.1-13.9c-7.1-4.5-6.5-10.8-3.7-17.5c0.2-0.6,0.5-1.5,0.2-1.8
				c-3.9-5.6-0.8-10.4,1.8-15.6c-4.1-3.6-4.3-8-2.2-12.9c0.2-0.5,0.4-1.4,0.1-1.9c-3-4.9-0.4-9,1.6-13.2c0.8-1.6,1.9-3,2.9-4.6
				c-3.5-3.3-3-6.9-0.9-10.4c2.5-4.2,5.2-8.3,7.9-12.4c1-1.5,1.1-2.5,0.1-4.4c-2.4-4.8-6.3-8.8-7.4-14.5c-0.9-4.5,0.4-8.5,5.4-10.4
				c4.3-1.7,8.9-3,13.4-4.3c5.9-1.8,7-3.2,7.1-9.5c0.1-9.6,1.7-18.9,6.9-27.2c1.7-2.7,3.9-4.6,7-5.2c4.8-0.9,8.2,1.7,7.5,6.6
				c-0.5,3.3-2.1,6.5-3.4,9.7c-1.3,3.3-2.9,6.4-4.6,9.9c4,0.4,7.4,0.8,10.7,0.8c0.7,0,1.5-1.7,2.1-2.7c2.9-5,5.7-10.1,8.8-15
				c1.1-1.7,2.9-3.1,4.6-4.3c2.7-1.9,6.2-1.7,8.4,0.1c2.4,2,3.4,5.4,1.9,8.5c-1.5,3.1-3.4,6-5.2,8.9c-1.2,2-2.7,3.8-4,5.8
				c-2.9,4.7-4.3,8.9-0.9,14.6c4.3,7.1,5.5,15.5,4.9,23.9c-0.3,4-1.7,7.3-5.6,9.2c-0.8,0.4-1.4,1.8-1.6,2.8
				c-0.5,2.8-0.6,5.8-1.2,8.6c-0.5,2.5-2,4.3-4.7,5.3c-0.8,0.3-1.6,1.4-1.7,2.3c-1,7.1-1.4,14.2,0.4,21.3c1.2,4.8-0.4,8.2-4.6,10.9
				c-0.5,0.3-1.1,1.1-1.1,1.8c-0.2,7.4-0.1,14.7,3.6,21.5c1.8,3.3,4.3,5.4,7.9,6c6.2,1,12.4,1.8,18.5,2.9c2,0.4,4.5,0.8,5.7,2.2
				c1.9,2.1,4,2.1,6.5,2.4c3.2,0.4,6.4,1.2,9.3,2.4c1.5,0.6,3.4,2.5,3.6,4c0.4,3.2,2.4,4.5,4.5,6.2c23.1,18.3,31.6,42.6,29.6,71.3
				c-0.4,5.9-2.3,7.4-8,8.1c-0.9,0.1-1.7,0.9-2.6,1.2c-1.4,0.5-3.1,1.7-4.3,1.3C147.5,261.7,143.2,259.8,138.3,257.9z M74.1,119.4
				c0.3,0,0.5,0.1,0.8,0.1c0.2,1.4,0.2,2.9,0.5,4.2c0.3,1.3,1.1,2.5,1.6,3.7c0.8-1.3,1.6-2.5,2.2-3.9c0.2-0.5,0-1.3-0.1-2
				c-2.6-10.5-1-20.8,0.8-31.2c0.2-0.9,0.8-1.8,1.5-3.5c1,2.6,1.6,4.3,2.2,5.9c0.4,0,0.8-0.1,1.1-0.1c0.4-1.9,1-3.8,1.2-5.7
				c0.5-4.2,0.7-8.4,1.2-12.6c0.1-1,0.8-1.9,1.3-2.9c0.3,0.1,0.6,0.1,0.9,0.2c0.3,1.6,0.6,3.1,0.8,4.7c0.4,0.1,0.9,0.2,1.3,0.3
				c0.6-1.7,1.7-3.4,1.9-5.2c0.8-8.3-1.1-16.2-5-23.6c-0.7-1.3-2.2-2.1-3.7-3.5c0.7-5,4.4-12.8,9.3-19.7c1.6-2.3,3-4.7,4.4-7.1
				c0.5-1,0.6-2.1,0.9-3.2c-0.4-0.2-0.7-0.3-1.1-0.5C92.9,23,87.6,32.1,82.3,41.2c-0.3-0.2-0.5-0.3-0.8-0.5
				C84.9,30.8,90.7,22.1,96,13c-1.9,1.1-3.8,2.2-4.8,3.9c-3.3,5.7-6.3,11.5-9.3,17.3c-1.1,2.1-2.3,4.3-3.7,7.1c-1.8-5.8-3-6.6-8.2-6
				c-3.4,0.4-6.8,1.2-10.9,1.9c1.1-1.8,2.4-3.3,3.1-5c2.5-5.9,4.9-11.9,7.1-18c0.6-1.6,0.9-4.6,0.2-5C67,8,65.3,9.9,63.9,11.8
				c-0.3,0.4-0.4,0.8-0.7,1.2c-4.1,7-5.6,14.8-5.7,22.8c0,1.5,0.6,2.9,1,4.7c-0.8,1.1-2.1,2.5-2.8,4.1c-0.5,1.1-0.7,2.8-0.2,3.6
				c0.6,0.9,2.3,1.5,3.4,1.3c1.6-0.2,3.1-1.3,4.6-1.9c1.1,4.3,3.4,5,7.3,1.5c2.8-2.5,5.3-2.3,8.1-0.5c6.5,4.2,8.3,15.9,3.4,22.5
				c-5.9,8-14.7,10.5-24.7,6.5c-5.8-2.3-11.2,0.5-16.7,1.2c-0.3,0-0.7,0.5-0.9,0.9c-3.3,5.1-6.6,10.1-9.7,15.2c-0.6,1-0.6,2.3-1,4
				c1.4-0.4,2-0.7,2.6-0.8c1.1-0.2,2.2-0.4,3.3-0.6c-0.4,1.1-0.5,2.2-1.1,3.2c-2.5,4.2-5.1,8.3-7.5,12.6c-0.7,1.2-0.4,3-0.7,5.1
				c2.3-1,3.7-1.7,5.1-2.3c0.2,0.3,0.4,0.6,0.6,0.9c-0.8,1.2-1.5,2.3-2.3,3.5c-1.1,1.7-2.5,3.3-3.1,5.1c-0.5,1.5,0,3.4,0.1,5.1
				c1.4-0.1,2.9-0.2,4.3-0.2c0.6,0,1.7-0.2,1.7,0c0.2,0.7,0.4,1.6,0,2.1c-1.1,1.8-2.5,3.4-3.6,5.2c-1.2,2.2-2.4,4.5-3.2,6.9
				c-0.3,0.8,0,2.4,0.7,3c0.5,0.4,2-0.1,2.9-0.4c0.8-0.3,1.5-0.9,2.3-1.4c0.3,0.3,0.6,0.6,0.9,0.9c-1,1.3-1.9,2.7-2.9,3.9
				c-2.8,3.2-4.8,6.8-4.2,11.2c0.5,4.1,3.3,5.2,6.6,2.7c0.9-0.7,2-1.2,3-1.8c0.2,0.3,0.5,0.5,0.7,0.8c-0.5,0.9-1.1,1.8-1.6,2.7
				c-2,3.7-4.8,7.1-4.5,11.7c0.1,1,0.8,2,1.2,2.9c0.8-0.4,1.7-0.7,2.5-1.1c0.6-0.3,1.2-0.8,1.8-1.1c0.3,1.4,0,2.3-0.4,3.2
				c-1.3,3.1-3,6-3.8,9.2c-0.8,3.1,0.9,4,3.9,3c0.9-0.3,1.9-0.2,2.9-0.3c-0.4,0.9-0.7,2-1.4,2.8c-2.2,2.9-4.9,5.5-6.8,8.6
				c-0.7,1.1-0.5,3.8,0.4,4.7c1.4,1.5,3.6,1.3,5.4-0.2c1-0.8,2.2-1.4,3.4-2.1c0.2,0.3,0.5,0.5,0.7,0.8c-0.9,1-1.9,2-2.6,3.2
				c-1,1.6-2.1,3.2-2.7,4.9c-0.3,0.9,0.5,2.1,0.7,3.2c0.9-0.6,1.9-1,2.6-1.7c0.8-0.8,1.3-1.8,2.1-3c0,3-0.5,5.6,0.1,7.8
				c0.7,2.3,2.5,4.3,3.8,6.4c-0.3,0.2-0.6,0.4-1,0.6c-1.1-1.3-2.2-2.5-3.8-4.4c2.2,22.3,4.3,43.8,6.5,65.3c0.4,0.1,0.8,0.3,1.2,0.4
				c0.4-0.9,0.8-1.8,1.1-2.4c1.5,0.7,2.4,1.1,3.4,1.5c0.3-1.1,0.8-2.2,0.8-3.3c-0.3-13.9-0.9-27.9-1.1-41.8c0-3.7-1.1-6.6-3.6-9.3
				c-0.7-0.7-1-1.8-1.8-3.5c7.1,4.9,13.3,9.2,20,13.9c0.4-2.5,0.6-4.1,0.8-5.7c0.5,0,1,0,1.4,0c0.9,17.8,1.8,35.7,2.7,54.3
				c1.6-1.3,2.3-1.9,2.8-2.3c1.2,0.5,2.1,0.9,3.1,1.3c0.3-1,0.8-2,0.8-3c0.3-15.3,0.6-30.6,1-45.9c0-1.4,0.5-2.7,0.7-4.1
				c0.4,0,0.8,0.1,1.2,0.1c0.2,1.6,0.4,3.1,0.6,4.8c3,0.5,6.1,0.6,8.9,1.5c11.6,3.7,18.3,12.1,20.7,23.7c1.2,6.1,1.2,12.4,1.6,18.7
				c0.3,4.4,0.4,4.6,4.2,2.5c3.3,2.4,3.7,2,5-2c2.3-7.4,4.5-14.9,7.7-22c4.9-11,10.4-21.7,15.8-32.5c0.6-1.2,1.5-2.2,2.3-3.3
				c0.3,0.1,0.6,0.3,0.8,0.4c-0.2,1-0.3,2.1-0.7,3.1c-1.2,3.1-3,6.1-3.6,9.3c-0.6,2.9-0.3,6.1,0.1,9.1c0.1,0.8,1.9,1.4,2.9,2.1
				c0.6-0.9,1.4-1.8,1.7-2.8c0.4-1.3,0.6-2.7,0.8-4c0.5,0.1,0.9,0.1,1.4,0.2c0,1.9-0.4,4,0.1,5.8c0.4,1.3,1.8,2.3,2.8,3.5
				c0.8-1.3,2-2.4,2.4-3.8c0.5-2.1,0.3-4.4,0.4-6.6c0.4,0,0.8,0,1.2,0c0.1,1.8,0,3.7,0.4,5.4c0.2,0.9,1.1,2.3,1.7,2.3
				c1.1,0,2.7-0.5,3.3-1.4c0.7-1.1,0.8-2.8,0.9-4.2c1.3-17.9-2.9-34.4-12.6-49.4c-6.5-10-14.8-18.1-26.3-22.2
				c-0.4-0.1-0.7-0.6-1.7-1.5c2.8,0.3,4.6,0.4,6.6,0.6c0.1-3.1-1.8-4-3.8-4.2c-5.7-0.6-11.5-1-17.3-1.4c-1.5-0.1-3.1-0.2-4.6-0.4
				c0-0.3,0-0.6,0-0.9c2.5-0.3,5.1-0.7,7.6-1c-1-1.1-2.2-1.6-3.4-1.8c-6.2-1-12.4-1.7-18.5-2.8c-5.7-1.1-9.8-4.2-12.2-9.8
				c-5-11.4-3.5-23.2-3.1-35C73.5,120.4,73.9,119.9,74.1,119.4z M38,71.8c-0.1,0.6-0.1,1.1-0.2,1.7c1.6,0.2,3.2,0.7,4.7,0.4
				c6.2-1.4,12.2-1.6,18.3,1.2c5.4,2.5,10.7,1.1,15.4-2.5c6.3-4.7,7.6-14.7,2.5-20.2c-1.9-2.1-3.9-3.2-6.5-0.7
				c-1.1,1.1-3,2.3-4.4,2.1c-4.3-0.4-9.4-0.2-12.7-2.3c-3.5-2.2-6-1.7-9.1-0.8c-2.1,0.6-4.3,1.1-6.4,1.9c-2.4,0.9-4.8,1.8-7,3.1
				c-0.8,0.5-0.9,2.2-1.3,3.4c1,0.3,2,0.8,3,0.8c1.1,0,2.2-0.6,3.3-0.5c1,0.2,1.9,1,2.8,1.5c-0.9,0.5-1.8,1.4-2.7,1.5
				c-1.5,0.2-3.1-0.1-4.8-0.3c-0.5,3.7,1.1,6.1,3.7,6.4c6.2,0.8,12.5,1.7,18.6-2.1c-0.1,1.1-0.4,2.5-1.2,3c-1.2,0.7-2.7,1.1-4.1,1.2
				C45.9,71.2,42,71.4,38,71.8z M83,250.3c1.1,2.3,2,4,2.8,5.9c3.5,8.3,3.2,17.2,3.5,26c0.1,2,0,4,2.9,2.1c0.4-0.3,1.6-0.2,2,0.2
				c2.5,2.1,3.2,0.5,3.8-1.6c1.1-4.1,1.7-8.4,3.4-12.2c2-4.5,1.6-8.2-1.6-11.8C95.4,253.8,90.1,250.9,83,250.3z M89.1,286.9
				c0.6,3.4,0.8,5.9,1.5,8.2c0.3,1,1.3,2.4,2.2,2.5c0.8,0.1,2.2-1.1,2.6-2.1c0.9-2.3,1.5-4.8,2.3-7.8
				C94.7,287.5,92.2,287.2,89.1,286.9z M111.4,295c0.6,3.4,0.8,6,1.4,8.4c0.2,0.9,1.3,2.3,1.9,2.3c1,0,2.4-1,2.7-1.8
				c1-2.4,1.5-5,2.3-8C116.9,295.5,114.5,295.3,111.4,295z M77.2,296c-2.4,0-4.5,0-7.2,0c0.4,2.6,0.4,4.9,1.1,7.1
				c0.3,0.9,2,1.8,3,1.8c0.8,0,2-1.3,2.3-2.2C77,300.7,77,298.5,77.2,296z M52.2,292.2c-2.4,0.1-4.5,0.2-7,0.3
				c0.5,2.7,0.7,4.9,1.5,6.9c0.4,0.9,2.1,1.9,3,1.8c0.9-0.1,2.2-1.5,2.4-2.5C52.5,296.9,52.2,294.9,52.2,292.2z"/>
			<linearGradient id="SVGID_3_" gradientUnits="userSpaceOnUse" x1="92.1834" y1="146.2723" x2="93.2659" y2="330.2946">
				<stop  offset="0" style="stop-color:#FE9079"/>
				<stop  offset="0.1969" style="stop-color:#FE877C"/>
				<stop  offset="0.5241" style="stop-color:#FE6D86"/>
				<stop  offset="0.9392" style="stop-color:#FF4495"/>
				<stop  offset="0.9944" style="stop-color:#FF3E97"/>
			</linearGradient>
			<path class="st7" d="M83,250.3c7.1,0.6,12.4,3.5,16.8,8.4c3.2,3.6,3.6,7.3,1.6,11.8c-1.7,3.8-2.3,8.1-3.4,12.2
				c-0.6,2.1-1.3,3.8-3.8,1.6c-0.4-0.4-1.6-0.5-2-0.2c-2.9,1.9-2.8-0.1-2.9-2.1c-0.4-8.8,0-17.7-3.5-26
				C85,254.3,84.1,252.6,83,250.3z"/>
			<path class="st1" d="M89.1,286.9c3.1,0.3,5.6,0.6,8.5,0.9c-0.8,3-1.4,5.5-2.3,7.8c-0.4,0.9-1.7,2.1-2.6,2.1
				c-0.8-0.1-1.9-1.5-2.2-2.5C89.9,292.8,89.7,290.4,89.1,286.9z"/>
			<path class="st1" d="M111.4,295c3.1,0.3,5.5,0.6,8.4,0.9c-0.8,3-1.3,5.6-2.3,8c-0.4,0.9-1.8,1.8-2.7,1.8c-0.6,0-1.7-1.4-1.9-2.3
				C112.2,300.9,112,298.4,111.4,295z"/>
			<path class="st1" d="M52.2,292.2c0,2.6,0.3,4.7-0.1,6.6c-0.2,1-1.5,2.4-2.4,2.5c-1,0.1-2.7-0.9-3-1.8c-0.8-2-0.9-4.3-1.5-6.9
				C47.8,292.5,49.9,292.4,52.2,292.2z"/>
			<path class="st8" d="M44.2,118c-3.4-1.9-3.5-4.7-2.2-8c0.2-0.6,0.3-1.6-0.1-2.1c-2.5-3.6-0.8-6.6,1.3-9.4c2.2-2.9,5.3-4.4,9-4.9
				c-2.4,4.2-8.4,5.9-8.3,12.6c1.5-0.8,2.3-1.4,3.3-1.7c0.8-0.2,1.8,0,2.7,0c-0.2,0.9-0.3,1.9-0.8,2.5c-1.3,1.5-2.9,2.7-4.1,4.3
				c-0.5,0.6-0.6,2.1-0.2,2.8c0.3,0.5,1.7,0.3,2.6,0.4c0.9,0.1,1.8,0.3,2.7,0.5c-0.3,0.9-0.6,1.8-1,2.6c-0.9,1.6-2.1,3.1-2.8,4.8
				c-0.3,0.8,0,2.2,0.5,3c0.3,0.4,1.8-0.1,2.7-0.3c0.3-0.1,0.6-0.4,0.9-0.5c1.1-0.3,2.3-0.6,3.4-0.8c-0.6,1.2-0.9,2.7-1.8,3.5
				c-2.2,1.8-4.7,2.6-7.4,0.8c-2.5-1.7-2-4.3-1.5-6.7C43.3,120.2,43.8,119.2,44.2,118z"/>
			<path class="st6" d="M75.4,61.9c-1.3,1.8-2.2,4.2-3.9,5c-1.3,0.7-4.5,0.1-5.3-1c-1.3-1.8-1.4-4.4-1.8-6.8
				c-0.1-0.3,0.9-1.3,1.2-1.2c0.6,0.2,1.3,0.8,1.5,1.3c0.4,1,0.1,2.3,0.6,3.2c0.3,0.7,1.3,1.7,2,1.7c0.7,0,1.4-1.1,1.9-1.8
				c0.3-0.5-0.1-1.4,0.1-2c0.3-1,0.9-1.9,1.4-2.9c0.5,1,1.1,1.9,1.6,2.9c0.1,0.3,0,0.7,0,1C74.9,61.6,75.1,61.7,75.4,61.9z"/>
		</g>
	</g>
</g>
</svg>
