<?xml version="1.0" encoding="utf-8"?>
<!-- Generator: Adobe Illustrator 23.0.1, SVG Export Plug-In . SVG Version: 6.00 Build 0)  -->
<svg version="1.1" id="Camada_1" xmlns="http://www.w3.org/2000/svg" xmlns:xlink="http://www.w3.org/1999/xlink" x="0px" y="0px"
	 viewBox="0 0 296 114" style="enable-background:new 0 0 296 114;" xml:space="preserve">
<style type="text/css">
	.st0{fill:#DC3545;}
	.st1{fill:#FEFAF7;}
	.st2{fill:#C0A8D8;}
	.st3{fill:#FFFFFF;}
	.st4{fill:none;stroke:#FFFFFF;stroke-width:14;stroke-miterlimit:10;}
	.st5{clip-path:url(#SVGID_2_);}
	.st6{fill:#353535;}
	.st7{fill:url(#SVGID_3_);}
	.st8{fill:#303030;}
</style>
<path class="st0" d="M123.9,113.8H37.6c-7.5,0-13.6-6.1-13.6-13.6V13.8c0-7.5,6.1-13.6,13.6-13.6h86.4c7.5,0,13.6,6.1,13.6,13.6
	v86.4C137.6,107.7,131.4,113.8,123.9,113.8z"/>
<path class="st1" d="M45.3,111.9v-8.3l5-12.6l-2.5-4.9L53.1,75l3.6-6.2L52.6,59l-2.4-6.6l1.8-4.2l12.1-4.4l7.3-4.2l0.6-4.7l1.3-10.7
	l0.2-8.7l3-4.5l4.2-3.4c0,0,3.4-2.1,3.8-2.1s1.6-1.3,2.2,0.7s-0.9,9.5-1.2,9.8c-0.3,0.3-4.8,12.2-4.8,12.2L93,29.9l7.3-13l7.3-7.3
	l4.7,1l0.9,1.6l-1.5,5.3l-5.9,9l-3.9,8.4l1.8,7.9l5.3,12v9.8l-4.7,5.6l-3.1,3.6l-0.3,7.6L96.7,85l-1.9,2.8l-0.3,17.3l0.7,3v3.3
	l-1,2.5h-1.7H45.3V111.9z"/>
<ellipse class="st2" cx="-1238.1" cy="36.7" rx="205.2" ry="28.3"/>
<g>
	
		<image style="overflow:visible;opacity:0.75;" width="426" height="844" xlink:href="639D7FDC.png"  transform="matrix(1 0 0 1 -1455 -415)">
	</image>
	<g>
		<path class="st3" d="M-1136.6,62.4c-5.4-4.3-10.8-7.8-11.7-16.1c-0.4-3.9-5.3-8.8-9.3-10.4c-7.6-3.2-16-5.2-24.3-6.2
			c-6.4-0.8-11.8-0.7-16.9-6.3c-3.2-3.6-9.7-4.8-14.9-5.7c-16-2.8-32.2-4.8-48.3-7.5c-9.5-1.6-16-7.1-20.7-15.7
			c-9.6-17.7-10-36.8-9.4-56.1c0.1-1.6,1.5-3.7,3-4.6c11-7.1,15.3-16,12.1-28.5c-4.8-18.5-3.6-37-1.1-55.5c0.3-2.2,2.5-5.2,4.6-5.9
			c6.8-2.4,10.8-7.1,12.2-13.7c1.5-7.4,1.7-15,3.1-22.4c0.5-2.7,2.1-6.3,4.2-7.4c10.1-5.1,13.9-13.6,14.6-24.1
			c1.5-22-1.7-43.9-12.8-62.5c-9-14.9-5.3-25.8,2.2-38c3.2-5.2,7.1-10,10.3-15.2c4.7-7.7,9.6-15.3,13.6-23.4
			c3.9-8,1.5-16.9-4.8-22.2c-5.8-4.9-14.8-5.4-22-0.4c-4.5,3.1-9.2,6.7-12,11.2c-8.1,12.7-15.2,26-22.9,39c-1.5,2.6-3.6,7-5.4,7
			c-8.8,0-17.6-1.2-28-2.1c4.3-9.2,8.5-17.4,12-25.9c3.4-8.3,7.6-16.6,8.8-25.3c1.8-12.6-7.1-19.6-19.7-17.1
			c-8.3,1.6-14,6.7-18.3,13.7c-13.5,21.8-17.7,45.9-18,71c-0.2,16.3-3.1,20-18.4,24.7c-11.7,3.5-23.5,6.8-34.9,11.2
			c-12.9,5.1-16.2,15.6-14,27.2c2.8,14.8,13,25.1,19.3,37.7c2.4,4.9,2.3,7.4-0.3,11.4c-7,10.7-14,21.4-20.6,32.4
			c-5.5,9.2-6.8,18.6,2.3,27.1c-2.7,4.2-5.5,7.9-7.6,12c-5.4,10.9-12.1,21.8-4.3,34.5c0.7,1.2,0.4,3.4-0.2,4.8
			c-5.7,12.7-5.1,24.2,5.6,33.5c-6.6,13.6-14.9,26.1-4.7,40.7c0.7,1,0.1,3.3-0.5,4.8c-7.2,17.6-8.7,34,9.8,45.7
			c-2.9,12.7-7.2,25,2.9,36.2c0.8,0.9-0.2,3.8-0.8,5.6c-3.3,10.4-4.6,20.5,2.9,28.9c-3.3,6.6-7.4,12.3-9,18.6
			c-1.3,5.2-2,13,0.8,16.5c6.1,7.5,12.7,13.7,12.1,24.5c-0.1,1.9,2.5,4.8,4.6,6c5.7,3.1,6.7,8.2,7.3,13.9c0.7,7.2,1.7,14.4,2.4,21.7
			c4.1,44.1,8,88.1,12.4,132.2c1.2,12.4,2.9,24.9,5.8,37c2.3,9.2,10.7,13.6,19.6,12.7c8.6-0.8,14.9-6.1,16.2-14.6
			c1-6.6,1.7-13.4,1.5-20c-1.2-35.5-2.8-71-4-106.4c-0.2-5.3,0.5-10.6,0.9-17.1c6.5,3.5,11.6,5.7,16,8.9c2.4,1.8,4.8,5.2,4.9,8
			c1.4,23.8,2.2,47.7,3.3,71.5c0.8,18,1.7,36.1,2.7,54.1c0.2,3.7,1,7.5,2,11.1c2.7,8.9,9.9,14,19,13.7c9.5-0.3,16.4-5,17.2-15.2
			c1.7-22.6,2.1-45.3,2.6-67.9c0.4-14.6,0.1-29.3,0.1-43.9c1-0.1,2-0.2,3-0.3c0.8,3.5,2,7,2.3,10.5c1.2,14.5,2,29,3.2,43.6
			c1.1,13.6,2.2,27.2,4.2,40.7c1.1,7.4,6.5,13.8,14,13.4c5.8-0.3,12-4.5,16.9-8.4c2.8-2.2,4-7.1,4.9-10.9
			c2.4-10.5,4.2-21.1,6.5-31.6c1.9-8.8,4.2-17.5,6.3-26.2c0.7,0.1,1.5,0.3,2.2,0.4c0.4,4,0.9,8,1.2,12c1.8,23.2,3,46.4,5.5,69.6
			c1.2,10.6,8,16.5,16,16.9c7.6,0.4,15.5-5.2,18.6-14.6c2.5-7.4,4.5-15.1,5.6-22.9c5-36.4,19.2-69.3,37.3-99.4
			c12.6,5,24,10,35.8,13.8c3.1,1,7.5-2,11.2-3.4c2.3-0.9,4.4-2.9,6.8-3.2c14.9-1.8,19.8-5.8,20.9-21.2
			C-1054.2,173.6-1076.3,110-1136.6,62.4z M-1403.5,161.9c-0.1-0.4-0.2-0.7-0.3-1.1C-1403.7,161.2-1403.6,161.6-1403.5,161.9
			c0.4-0.3,0.9-0.5,1.3-0.8C-1402.6,161.4-1403.1,161.6-1403.5,161.9z"/>
		<path class="st4" d="M-1136.6,62.4c-5.4-4.3-10.8-7.8-11.7-16.1c-0.4-3.9-5.3-8.8-9.3-10.4c-7.6-3.2-16-5.2-24.3-6.2
			c-6.4-0.8-11.8-0.7-16.9-6.3c-3.2-3.6-9.7-4.8-14.9-5.7c-16-2.8-32.2-4.8-48.3-7.5c-9.5-1.6-16-7.1-20.7-15.7
			c-9.6-17.7-10-36.8-9.4-56.1c0.1-1.6,1.5-3.7,3-4.6c11-7.1,15.3-16,12.1-28.5c-4.8-18.5-3.6-37-1.1-55.5c0.3-2.2,2.5-5.2,4.6-5.9
			c6.8-2.4,10.8-7.1,12.2-13.7c1.5-7.4,1.7-15,3.1-22.4c0.5-2.7,2.1-6.3,4.2-7.4c10.1-5.1,13.9-13.6,14.6-24.1
			c1.5-22-1.7-43.9-12.8-62.5c-9-14.9-5.3-25.8,2.2-38c3.2-5.2,7.1-10,10.3-15.2c4.7-7.7,9.6-15.3,13.6-23.4
			c3.9-8,1.5-16.9-4.8-22.2c-5.8-4.9-14.8-5.4-22-0.4c-4.5,3.1-9.2,6.7-12,11.2c-8.1,12.7-15.2,26-22.9,39c-1.5,2.6-3.6,7-5.4,7
			c-8.8,0-17.6-1.2-28-2.1c4.3-9.2,8.5-17.4,12-25.9c3.4-8.3,7.6-16.6,8.8-25.3c1.8-12.6-7.1-19.6-19.7-17.1
			c-8.3,1.6-14,6.7-18.3,13.7c-13.5,21.8-17.7,45.9-18,71c-0.2,16.3-3.1,20-18.4,24.7c-11.7,3.5-23.5,6.8-34.9,11.2
			c-12.9,5.1-16.2,15.6-14,27.2c2.8,14.8,13,25.1,19.3,37.7c2.4,4.9,2.3,7.4-0.3,11.4c-7,10.7-14,21.4-20.6,32.4
			c-5.5,9.2-6.8,18.6,2.3,27.1c-2.7,4.2-5.5,7.9-7.6,12c-5.4,10.9-12.1,21.8-4.3,34.5c0.7,1.2,0.4,3.4-0.2,4.8
			c-5.7,12.7-5.1,24.2,5.6,33.5c-6.6,13.6-14.9,26.1-4.7,40.7c0.7,1,0.1,3.3-0.5,4.8c-7.2,17.6-8.7,34,9.8,45.7
			c-2.9,12.7-7.2,25,2.9,36.2c0.8,0.9-0.2,3.8-0.8,5.6c-3.3,10.4-4.6,20.5,2.9,28.9c-3.3,6.6-7.4,12.3-9,18.6
			c-1.3,5.2-2,13,0.8,16.5c6.1,7.5,12.7,13.7,12.1,24.5c-0.1,1.9,2.5,4.8,4.6,6c5.7,3.1,6.7,8.2,7.3,13.9c0.7,7.2,1.7,14.4,2.4,21.7
			c4.1,44.1,8,88.1,12.4,132.2c1.2,12.4,2.9,24.9,5.8,37c2.3,9.2,10.7,13.6,19.6,12.7c8.6-0.8,14.9-6.1,16.2-14.6
			c1-6.6,1.7-13.4,1.5-20c-1.2-35.5-2.8-71-4-106.4c-0.2-5.3,0.5-10.6,0.9-17.1c6.5,3.5,11.6,5.7,16,8.9c2.4,1.8,4.8,5.2,4.9,8
			c1.4,23.8,2.2,47.7,3.3,71.5c0.8,18,1.7,36.1,2.7,54.1c0.2,3.7,1,7.5,2,11.1c2.7,8.9,9.9,14,19,13.7c9.5-0.3,16.4-5,17.2-15.2
			c1.7-22.6,2.1-45.3,2.6-67.9c0.4-14.6,0.1-29.3,0.1-43.9c1-0.1,2-0.2,3-0.3c0.8,3.5,2,7,2.3,10.5c1.2,14.5,2,29,3.2,43.6
			c1.1,13.6,2.2,27.2,4.2,40.7c1.1,7.4,6.5,13.8,14,13.4c5.8-0.3,12-4.5,16.9-8.4c2.8-2.2,4-7.1,4.9-10.9
			c2.4-10.5,4.2-21.1,6.5-31.6c1.9-8.8,4.2-17.5,6.3-26.2c0.7,0.1,1.5,0.3,2.2,0.4c0.4,4,0.9,8,1.2,12c1.8,23.2,3,46.4,5.5,69.6
			c1.2,10.6,8,16.5,16,16.9c7.6,0.4,15.5-5.2,18.6-14.6c2.5-7.4,4.5-15.1,5.6-22.9c5-36.4,19.2-69.3,37.3-99.4
			c12.6,5,24,10,35.8,13.8c3.1,1,7.5-2,11.2-3.4c2.3-0.9,4.4-2.9,6.8-3.2c14.9-1.8,19.8-5.8,20.9-21.2
			C-1054.2,173.6-1076.3,110-1136.6,62.4z M-1403.5,161.9c-0.1-0.4-0.2-0.7-0.3-1.1C-1403.7,161.2-1403.6,161.6-1403.5,161.9
			c0.4-0.3,0.9-0.5,1.3-0.8C-1402.6,161.4-1403.1,161.6-1403.5,161.9z"/>
	</g>
</g>
<g>
	<defs>
		<path id="SVGID_1_" d="M123.9,113.8H37.6c-7.5,0-13.6-6.1-13.6-13.6V13.8c0-7.5,6.1-13.6,13.6-13.6h86.4c7.5,0,13.6,6.1,13.6,13.6
			v86.4C137.6,107.7,131.4,113.8,123.9,113.8z"/>
	</defs>
	<clipPath id="SVGID_2_">
		<use xlink:href="#SVGID_1_"  style="overflow:visible;"/>
	</clipPath>
	<g class="st5">
		<path class="st3" d="M92.9,260.5c-0.3,2.8-0.3,5.1-0.9,7.3c-0.3,1-1.6,2.5-2.5,2.5c-1.2,0-3-1-3.3-2c-0.8-2.3-0.8-4.9-1.2-7.7
			C88,260.5,90.3,260.5,92.9,260.5z"/>
		<path class="st6" d="M146.2,227.8c-6.1,10.2-10.9,21.3-12.6,33.7c-0.4,2.6-1,5.2-1.9,7.7c-1.1,3.2-3.7,5.1-6.3,5
			c-2.7-0.2-5-2.1-5.4-5.7c-0.9-7.8-1.3-15.7-1.9-23.6c-0.1-1.4-0.3-2.7-0.4-4.1c-0.3,0-0.5-0.1-0.8-0.1c-0.7,3-1.5,5.9-2.1,8.9
			c-0.8,3.6-1.4,7.2-2.2,10.7c-0.3,1.3-0.7,3-1.7,3.7c-1.7,1.3-3.8,2.7-5.7,2.8c-2.5,0.1-4.4-2-4.7-4.5c-0.7-4.6-1-9.2-1.4-13.8
			c-0.4-4.9-0.7-9.8-1.1-14.7c-0.1-1.2-0.5-2.4-0.8-3.6c-0.3,0-0.7,0.1-1,0.1c0,5,0.1,9.9,0,14.9c-0.2,7.7-0.3,15.3-0.9,23
			c-0.3,3.5-2.6,5.1-5.8,5.1c-3.1,0.1-5.5-1.6-6.4-4.6c-0.4-1.2-0.6-2.5-0.7-3.8c-0.3-6.1-0.6-12.2-0.9-18.3
			c-0.4-8.1-0.7-16.2-1.1-24.2c-0.1-1-0.9-2.1-1.7-2.7c-1.5-1.1-3.2-1.8-5.4-3c-0.1,2.2-0.4,4-0.3,5.8c0.4,12,1,24,1.4,36
			c0.1,2.3-0.2,4.5-0.5,6.8c-0.4,2.9-2.6,4.7-5.5,4.9c-3,0.3-5.9-1.2-6.6-4.3c-1-4.1-1.6-8.3-2-12.5c-1.5-14.9-2.8-29.8-4.2-44.8
			c-0.2-2.5-0.6-4.9-0.8-7.3c-0.2-1.9-0.5-3.6-2.5-4.7c-0.7-0.4-1.6-1.4-1.6-2c0.2-3.6-2-5.8-4.1-8.3c-1-1.2-0.7-3.8-0.3-5.6
			c0.6-2.1,1.9-4.1,3-6.3c-2.5-2.8-2.1-6.3-1-9.8c0.2-0.6,0.5-1.6,0.3-1.9c-3.4-3.8-2-7.9-1-12.2c-6.3-4-5.7-9.5-3.3-15.5
			c0.2-0.5,0.4-1.3,0.2-1.6c-3.4-5-0.7-9.2,1.6-13.8c-3.6-3.1-3.8-7.1-1.9-11.4c0.2-0.5,0.3-1.2,0.1-1.6c-2.6-4.3-0.4-8,1.5-11.7
			c0.7-1.4,1.7-2.7,2.6-4.1c-3.1-2.9-2.6-6.1-0.8-9.2c2.2-3.7,4.6-7.4,7-11c0.9-1.3,0.9-2.2,0.1-3.9C52.4,62.5,49,59,48,54
			c-0.8-3.9,0.4-7.5,4.7-9.2c3.8-1.5,7.9-2.6,11.8-3.8c5.2-1.6,6.2-2.8,6.2-8.4c0.1-8.5,1.5-16.7,6.1-24.1c1.5-2.4,3.4-4.1,6.2-4.6
			c4.2-0.8,7.3,1.5,6.7,5.8c-0.4,2.9-1.8,5.8-3,8.6c-1.2,2.9-2.6,5.7-4,8.8c3.5,0.3,6.5,0.7,9.5,0.7c0.6,0,1.3-1.5,1.8-2.4
			c2.6-4.4,5-8.9,7.7-13.2c1-1.5,2.6-2.7,4.1-3.8c2.4-1.7,5.5-1.5,7.4,0.1c2.2,1.8,3,4.8,1.6,7.5c-1.3,2.7-3,5.3-4.6,7.9
			c-1.1,1.8-2.4,3.4-3.5,5.1c-2.5,4.1-3.8,7.8-0.8,12.9c3.8,6.3,4.8,13.7,4.3,21.2c-0.2,3.6-1.5,6.4-5,8.2c-0.7,0.4-1.3,1.6-1.4,2.5
			c-0.5,2.5-0.5,5.1-1.1,7.6c-0.5,2.2-1.8,3.8-4.1,4.6c-0.7,0.2-1.4,1.3-1.5,2c-0.9,6.3-1.3,12.5,0.4,18.8c1.1,4.2-0.4,7.3-4.1,9.7
			c-0.5,0.3-1,1-1,1.5c-0.2,6.5-0.1,13,3.2,19c1.6,2.9,3.8,4.8,7,5.3c5.4,0.9,10.9,1.6,16.3,2.5c1.8,0.3,4,0.7,5,1.9
			c1.7,1.9,3.6,1.9,5.7,2.1c2.8,0.4,5.6,1,8.2,2.1c1.4,0.6,3,2.2,3.2,3.5c0.3,2.8,2.1,4,4,5.5c20.4,16.1,27.9,37.7,26.2,63
			c-0.4,5.2-2,6.6-7.1,7.2c-0.8,0.1-1.5,0.8-2.3,1.1c-1.3,0.5-2.7,1.5-3.8,1.1C154.3,231.2,150.4,229.5,146.2,227.8z M89.4,105.4
			c0.2,0,0.4,0.1,0.7,0.1c0.1,1.2,0.1,2.5,0.5,3.7c0.3,1.1,0.9,2.2,1.4,3.3c0.7-1.1,1.4-2.2,2-3.4c0.2-0.5,0-1.2-0.1-1.7
			C91.5,98.1,93,89,94.5,79.8c0.1-0.8,0.7-1.6,1.3-3.1c0.9,2.3,1.4,3.8,2,5.2c0.3,0,0.7-0.1,1-0.1c0.4-1.7,0.9-3.3,1.1-5.1
			c0.4-3.7,0.6-7.5,1.1-11.2c0.1-0.9,0.7-1.7,1.1-2.5c0.3,0.1,0.5,0.1,0.8,0.2c0.2,1.4,0.5,2.8,0.7,4.2c0.4,0.1,0.8,0.2,1.2,0.2
			c0.6-1.5,1.5-3,1.6-4.6c0.7-7.4-1-14.3-4.4-20.8c-0.6-1.1-1.9-1.9-3.3-3.1c0.7-4.5,3.9-11.3,8.2-17.4c1.4-2,2.7-4.1,3.9-6.3
			c0.5-0.8,0.6-1.9,0.8-2.9c-0.3-0.1-0.6-0.3-1-0.4c-4.7,8-9.4,16-14,24c-0.2-0.1-0.5-0.3-0.7-0.4c3-8.8,8.1-16.5,12.8-24.5
			c-1.7,0.9-3.4,2-4.2,3.4c-2.9,5-5.5,10.2-8.3,15.3c-1,1.9-2,3.8-3.3,6.3c-1.6-5.1-2.6-5.8-7.3-5.3c-3,0.4-6,1.1-9.6,1.7
			c1-1.6,2.1-2.9,2.7-4.4c2.2-5.2,4.3-10.5,6.2-15.9c0.5-1.4,0.8-4.1,0.2-4.4c-2.1-1.1-3.6,0.6-4.8,2.2c-0.2,0.3-0.4,0.7-0.6,1
			c-3.7,6.2-4.9,13.1-5,20.1c0,1.3,0.5,2.6,0.9,4.1c-0.7,1-1.9,2.2-2.5,3.6c-0.4,0.9-0.6,2.5-0.2,3.2c0.5,0.8,2,1.3,3,1.2
			c1.4-0.2,2.7-1.1,4-1.7c0.9,3.8,3,4.4,6.4,1.3c2.4-2.2,4.7-2,7.2-0.4c5.8,3.7,7.3,14.1,3,19.9c-5.2,7.1-13,9.2-21.9,5.8
			c-5.2-2-9.9,0.4-14.8,1c-0.3,0-0.6,0.5-0.8,0.8c-2.9,4.5-5.8,8.9-8.6,13.5c-0.5,0.9-0.5,2-0.9,3.5c1.2-0.4,1.8-0.6,2.3-0.7
			c1-0.2,2-0.3,3-0.5c-0.3,0.9-0.5,2-1,2.8c-2.2,3.7-4.5,7.4-6.6,11.2c-0.6,1.1-0.4,2.6-0.6,4.5c2-0.9,3.3-1.5,4.5-2.1
			c0.2,0.3,0.4,0.5,0.6,0.8c-0.7,1-1.3,2.1-2,3.1c-0.9,1.5-2.2,2.9-2.7,4.5c-0.4,1.4,0,3,0.1,4.5c1.3-0.1,2.5-0.1,3.8-0.2
			c0.5,0,1.5-0.1,1.5,0c0.2,0.6,0.3,1.4,0,1.9c-1,1.6-2.2,3-3.2,4.6c-1.1,1.9-2.1,4-2.8,6.1c-0.3,0.7,0,2.1,0.6,2.6
			c0.5,0.4,1.7-0.1,2.6-0.4c0.7-0.3,1.4-0.8,2-1.2c0.3,0.3,0.6,0.5,0.8,0.8c-0.9,1.2-1.7,2.4-2.6,3.5c-2.4,2.9-4.2,6-3.7,9.9
			c0.5,3.6,2.9,4.6,5.8,2.4c0.8-0.6,1.8-1.1,2.7-1.6c0.2,0.2,0.4,0.4,0.6,0.7c-0.5,0.8-1,1.6-1.4,2.4C52.4,150,50,153,50.3,157
			c0.1,0.9,0.7,1.7,1,2.6c0.7-0.3,1.5-0.6,2.2-1c0.6-0.3,1.1-0.7,1.6-1c0.3,1.2,0,2-0.4,2.8c-1.1,2.7-2.7,5.3-3.3,8.1
			c-0.7,2.7,0.8,3.6,3.4,2.7c0.8-0.3,1.7-0.2,2.6-0.2c-0.4,0.8-0.7,1.8-1.2,2.5c-2,2.5-4.3,4.9-6,7.6c-0.6,1-0.4,3.3,0.4,4.1
			c1.3,1.3,3.2,1.2,4.8-0.2c0.9-0.7,2-1.3,3-1.9c0.2,0.2,0.4,0.5,0.6,0.7c-0.8,0.9-1.7,1.8-2.3,2.8c-0.9,1.4-1.9,2.8-2.4,4.3
			c-0.3,0.8,0.4,1.9,0.7,2.9c0.8-0.5,1.6-0.9,2.3-1.5c0.7-0.7,1.2-1.6,1.9-2.6c0,2.6-0.4,4.9,0.1,6.9c0.6,2,2.2,3.8,3.3,5.6
			c-0.3,0.2-0.6,0.3-0.9,0.5c-1-1.1-1.9-2.2-3.4-3.9c2,19.7,3.8,38.7,5.7,57.7c0.3,0.1,0.7,0.3,1,0.4c0.4-0.8,0.7-1.6,1-2.1
			c1.3,0.6,2.2,1,3,1.4c0.2-1,0.7-2,0.7-2.9c-0.3-12.3-0.8-24.6-1-37c0-3.3-1-5.9-3.2-8.2c-0.6-0.6-0.9-1.6-1.6-3.1
			c6.2,4.3,11.7,8.2,17.6,12.3c0.3-2.2,0.5-3.6,0.7-5c0.4,0,0.9,0,1.3,0c0.8,15.8,1.6,31.5,2.4,48c1.4-1.2,2.1-1.7,2.5-2
			c1.1,0.5,1.9,0.8,2.7,1.2c0.3-0.9,0.7-1.8,0.7-2.7c0.3-13.5,0.5-27,0.8-40.5c0-1.2,0.4-2.4,0.6-3.6c0.3,0,0.7,0.1,1,0.1
			c0.2,1.4,0.3,2.8,0.5,4.2c2.7,0.4,5.4,0.5,7.9,1.3c10.3,3.3,16.2,10.7,18.3,21c1.1,5.4,1.1,11,1.4,16.5c0.2,3.9,0.3,4,3.7,2.2
			c2.9,2.1,3.3,1.7,4.4-1.7c2-6.6,4-13.2,6.8-19.5c4.3-9.7,9.2-19.2,13.9-28.7c0.5-1,1.3-1.9,2-2.9c0.2,0.1,0.5,0.3,0.7,0.4
			c-0.2,0.9-0.3,1.8-0.6,2.7c-1.1,2.8-2.6,5.4-3.2,8.2c-0.5,2.6-0.3,5.4,0.1,8.1c0.1,0.7,1.7,1.2,2.5,1.9c0.5-0.8,1.2-1.6,1.5-2.5
			c0.4-1.1,0.5-2.4,0.7-3.6c0.4,0.1,0.8,0.1,1.2,0.2c0,1.7-0.3,3.5,0.1,5.1c0.3,1.2,1.6,2.1,2.5,3.1c0.7-1.1,1.8-2.2,2.1-3.4
			c0.4-1.9,0.3-3.9,0.4-5.8c0.4,0,0.7,0,1.1,0c0.1,1.6,0,3.2,0.3,4.8c0.2,0.8,1,2,1.5,2c1,0,2.4-0.5,2.9-1.2c0.6-1,0.7-2.4,0.8-3.7
			c1.2-15.8-2.6-30.4-11.2-43.6c-5.7-8.8-13.1-16-23.3-19.6c-0.4-0.1-0.6-0.5-1.5-1.4c2.4,0.2,4.1,0.4,5.9,0.6
			c0.1-2.8-1.6-3.5-3.3-3.7c-5.1-0.6-10.2-0.8-15.3-1.2c-1.4-0.1-2.7-0.2-4.1-0.3c0-0.3,0-0.6,0-0.8c2.2-0.3,4.5-0.6,6.7-0.9
			c-0.9-1-1.9-1.4-3-1.5c-5.5-0.8-10.9-1.5-16.4-2.5c-5-0.9-8.7-3.8-10.8-8.7c-4.4-10-3.1-20.5-2.8-30.9
			C88.9,106.3,89.3,105.9,89.4,105.4z M57.6,63.3c0,0.5-0.1,1-0.1,1.5c1.4,0.1,2.8,0.6,4.1,0.4c5.5-1.2,10.8-1.4,16.1,1.1
			c4.8,2.2,9.5,0.9,13.6-2.2c5.6-4.2,6.7-13,2.2-17.9c-1.7-1.9-3.4-2.9-5.7-0.6c-1,1-2.6,2-3.9,1.9c-3.8-0.3-8.3-0.2-11.3-2.1
			c-3.1-2-5.3-1.5-8.1-0.7c-1.9,0.5-3.8,1-5.7,1.7c-2.1,0.8-4.3,1.6-6.2,2.7c-0.7,0.4-0.8,2-1.2,3c0.9,0.2,1.7,0.7,2.6,0.7
			c1,0,2-0.5,2.9-0.4c0.9,0.1,1.7,0.9,2.5,1.3c-0.8,0.5-1.5,1.3-2.4,1.4c-1.4,0.2-2.8-0.1-4.2-0.2c-0.4,3.2,0.9,5.3,3.3,5.7
			c5.4,0.7,11.1,1.5,16.4-1.9c-0.1,1-0.3,2.2-1,2.6c-1,0.7-2.4,0.9-3.6,1.1C64.5,62.8,61,63,57.6,63.3z M97.3,221.1
			c1,2,1.8,3.6,2.4,5.2c3.1,7.4,2.8,15.2,3.1,23c0.1,1.8,0,3.5,2.6,1.8c0.4-0.3,1.4-0.1,1.8,0.2c2.2,1.9,2.9,0.4,3.4-1.4
			c1-3.6,1.5-7.4,3-10.8c1.8-4,1.4-7.3-1.4-10.5C108.3,224.2,103.6,221.6,97.3,221.1z M102.6,253.4c0.5,3,0.7,5.2,1.3,7.3
			c0.2,0.9,1.2,2.1,1.9,2.2c0.7,0.1,1.9-1,2.3-1.8c0.8-2.1,1.3-4.3,2-6.9C107.6,253.9,105.4,253.7,102.6,253.4z M122.4,260.5
			c0.5,3,0.7,5.3,1.3,7.4c0.2,0.8,1.2,2,1.7,2c0.9,0,2.1-0.8,2.4-1.6c0.9-2.1,1.3-4.4,2-7C127.2,261,125.1,260.8,122.4,260.5z
			 M92.2,261.5c-2.2,0-4,0-6.4,0c0.3,2.3,0.3,4.4,1,6.2c0.3,0.8,1.7,1.6,2.7,1.6c0.7,0,1.8-1.2,2-2
			C91.9,265.6,91.9,263.7,92.2,261.5z M70.1,258.1c-2.1,0.1-3.9,0.2-6.2,0.3c0.5,2.4,0.6,4.4,1.3,6.1c0.3,0.8,1.8,1.7,2.7,1.6
			c0.8-0.1,1.9-1.3,2.1-2.2C70.3,262.3,70.1,260.5,70.1,258.1z"/>
		<linearGradient id="SVGID_3_" gradientUnits="userSpaceOnUse" x1="105.3986" y1="129.1613" x2="106.3551" y2="291.7554">
			<stop  offset="0" style="stop-color:#FE9079"/>
			<stop  offset="0.1969" style="stop-color:#FE877C"/>
			<stop  offset="0.5241" style="stop-color:#FE6D86"/>
			<stop  offset="0.9392" style="stop-color:#FF4495"/>
			<stop  offset="0.9944" style="stop-color:#FF3E97"/>
		</linearGradient>
		<path class="st7" d="M97.3,221.1c6.3,0.6,11,3.1,14.9,7.5c2.9,3.2,3.2,6.4,1.4,10.5c-1.5,3.4-2.1,7.2-3,10.8
			c-0.5,1.9-1.2,3.3-3.4,1.4c-0.4-0.3-1.4-0.4-1.8-0.2c-2.6,1.7-2.5-0.1-2.6-1.8c-0.3-7.8,0-15.6-3.1-23
			C99.1,224.6,98.2,223.1,97.3,221.1z"/>
		<path class="st3" d="M102.6,253.4c2.8,0.3,5,0.5,7.5,0.8c-0.7,2.6-1.2,4.8-2,6.9c-0.3,0.8-1.5,1.9-2.3,1.8
			c-0.7-0.1-1.7-1.3-1.9-2.2C103.4,258.6,103.2,256.5,102.6,253.4z"/>
		<path class="st3" d="M122.4,260.5c2.7,0.3,4.8,0.5,7.4,0.8c-0.7,2.6-1.2,4.9-2,7c-0.3,0.8-1.6,1.6-2.4,1.6c-0.6,0-1.5-1.2-1.7-2
			C123.1,265.8,122.9,263.6,122.4,260.5z"/>
		<path class="st3" d="M70.1,258.1c0,2.3,0.2,4.1-0.1,5.8c-0.2,0.9-1.3,2.1-2.1,2.2c-0.9,0.1-2.4-0.8-2.7-1.6
			c-0.7-1.8-0.8-3.8-1.3-6.1C66.2,258.3,68,258.2,70.1,258.1z"/>
		<path class="st8" d="M63,104.2c-3-1.7-3.1-4.2-2-7.1c0.2-0.5,0.2-1.4-0.1-1.9c-2.2-3.2-0.7-5.8,1.2-8.3c2-2.6,4.7-3.9,8-4.3
			c-2.2,3.7-7.4,5.2-7.3,11.1c1.3-0.7,2.1-1.3,2.9-1.5c0.7-0.2,1.6,0,2.4,0c-0.2,0.8-0.2,1.7-0.7,2.2c-1.1,1.3-2.6,2.4-3.6,3.8
			c-0.4,0.6-0.5,1.9-0.2,2.4c0.3,0.4,1.5,0.2,2.3,0.4c0.8,0.1,1.6,0.3,2.3,0.4c-0.3,0.8-0.5,1.6-0.9,2.3c-0.8,1.4-1.9,2.8-2.5,4.3
			c-0.3,0.7,0,2,0.5,2.7c0.2,0.3,1.6-0.1,2.4-0.3c0.3-0.1,0.5-0.3,0.8-0.4c1-0.3,2-0.5,3-0.7c-0.5,1-0.8,2.4-1.6,3.1
			c-1.9,1.6-4.2,2.3-6.5,0.7c-2.2-1.5-1.7-3.8-1.4-5.9C62.2,106.1,62.7,105.2,63,104.2z"/>
		<path class="st6" d="M90.6,54.6c-1.1,1.5-1.9,3.7-3.4,4.5c-1.2,0.6-3.9,0.1-4.7-0.9c-1.2-1.5-1.2-3.9-1.6-6
			c-0.1-0.3,0.8-1.1,1.1-1c0.5,0.1,1.2,0.7,1.3,1.2c0.3,0.9,0.1,2,0.5,2.9c0.3,0.7,1.2,1.5,1.8,1.5c0.6,0,1.3-1,1.6-1.6
			c0.3-0.4-0.1-1.2,0.1-1.7c0.3-0.9,0.8-1.7,1.2-2.5c0.5,0.8,1,1.7,1.4,2.5c0.1,0.2,0,0.6,0,0.9C90.1,54.3,90.3,54.5,90.6,54.6z"/>
	</g>
</g>
<path class="st6" d="M164.8,37V16.1h8.2v27.7h-18.6V37H164.8z"/>
<path class="st6" d="M195.9,37v6.8h-18.6V16.1h8.2V37H195.9z"/>
<path class="st6" d="M216,43.8l-1.5-5.5h-7.1l-1.6,5.5h-6.6l8.2-27.7h8.6l8.3,27.7H216z M208.8,32.3h4.3l-2.2-8L208.8,32.3z"/>
<path class="st6" d="M257.4,16.1v27.7h-7.6V24l-4.9,19.8h-5.2L234.6,24v19.8h-6.1V16.1h10.7l3.9,14.7l3.7-14.7H257.4z"/>
<path class="st6" d="M261.5,43.8l8.3-27.7h8.6l8.2,27.7h-6.6l-1.6-5.5h-7.1l-1.5,5.5H261.5z M275,24.2l-2.2,8h4.3L275,24.2z"/>
<path class="st6" d="M195.9,101H180l-6.8-18.6h-4.5V101h-14.3V52.4h24.4c5.4,0,9.6,1.3,12.5,3.9c3,2.6,4.5,6.1,4.5,10.4
	c0,2.8-0.5,5.3-1.6,7.4c-1.1,2.2-3.3,4-6.6,5.7L195.9,101z M168.7,72h6.1c1.8,0,3.2-0.4,4.3-1.2c1.1-0.8,1.6-1.9,1.6-3.5
	c0-3.1-1.8-4.7-5.5-4.7h-6.6V72z"/>
<path class="st6" d="M240.7,89.4V101h-35.1V52.4h35.1v11.2h-21v7.1h17v10.8h-17v7.9H240.7z"/>
<path class="st6" d="M250.6,101V52.4h18c7.8,0,13.7,2.4,17.6,7.3c3.9,4.8,5.8,10.4,5.8,16.8c0,7.3-2.1,13.2-6.3,17.7
	c-4.2,4.5-9.6,6.8-16.3,6.8H250.6z M264.9,89.8h3.7c2.4,0,4.4-1.2,6-3.6s2.4-5.7,2.4-9.8c0-3.5-0.7-6.6-2.2-9.1
	c-1.4-2.6-3.5-3.8-6.3-3.8h-3.7V89.8z"/>
</svg>
