<?xml version="1.0" encoding="utf-8"?>
<!-- Generator: Adobe Illustrator 23.0.1, SVG Export Plug-In . SVG Version: 6.00 Build 0)  -->
<svg version="1.1" id="Layer_1" xmlns="http://www.w3.org/2000/svg" xmlns:xlink="http://www.w3.org/1999/xlink" x="0px" y="0px"
	 viewBox="0 0 570 537" style="enable-background:new 0 0 570 537;" xml:space="preserve">
<style type="text/css">
	.st0{fill:none;stroke:#8C8C8C;stroke-width:2;stroke-linecap:square;}
	.st1{fill:none;stroke:#8C8C8C;stroke-width:2;}
	.st2{fill-rule:evenodd;clip-rule:evenodd;fill:#FAFAFA;}
	.st3{fill:none;stroke:#8C8C8C;stroke-width:2;stroke-linecap:round;stroke-linejoin:round;}
</style>
<path class="st0" d="M-306.5,537.3H861"/>
<g transform="translate(196)">
	<path class="st1" d="M345.8,521.6L345.8,521.6v0.8c0.4,1.9-1,3.5-3.1,3.5h-29.1l1.2-7.5c0.4-2.1,2.5-4,4.8-4H339
		c1.2,0.6,2.1,1.3,3.1,2.1c1.2,1,2.1,1.9,2.7,2.7C345.2,520.2,345.6,521,345.8,521.6L345.8,521.6z"/>
	<g transform="matrix(-1 0 0 1 440 0)">
		<g>
			<path id="g" class="st2" d="M98,495.1c0-18,14.6-32.6,32.6-32.6h63.3V522c0,3.3-2.5,5.8-5.8,5.8l0,0h-57.5
				C112.6,527.7,98,513.1,98,495.1z"/>
		</g>
		<path class="st1" d="M192,464.5h-61.3c-16.9,0-30.7,13.8-30.7,30.7s13.8,30.7,30.7,30.7h57.5c2.1,0,3.8-1.7,3.8-3.8l0,0V464.5
			L192,464.5z"/>
	</g>
	<path class="st0" d="M313.2,465.4v57.5"/>
	<circle class="st3" cx="336.2" cy="531.5" r="5.8"/>
	<circle class="st3" cx="261.5" cy="531.5" r="5.8"/>
	<path class="st1" d="M305.5,516.2h-13.4v-15.3h-5.8V476l0,0h19.2l0,0L305.5,516.2L305.5,516.2z"/>
	<path class="st1" d="M286.4,516.2L286.4,516.2L286.4,516.2z M286.4,516.2H273l0,0V476l0,0h13.4l0,0V516.2L286.4,516.2z"/>
	<path class="st0" d="M272,500.9h-23 M338.1,500.9h-23"/>
	<path class="st1" d="M324.7,456.8v3.8c0,2.1-1.7,3.8-3.8,3.8H248v-7.7h76.7V456.8z M144.3,25.4l-28.6,511.9h118.7L204.1,25.4H144.3
		z"/>
	<g>
		<path id="h" class="st2" d="M102.3,347.5H248l-6.3,28.8h-133L102.3,347.5z"/>
	</g>
	<path class="st1" d="M104.6,349.4l5.6,24.9h130l5.6-24.9C245.7,349.4,104.6,349.4,104.6,349.4z M167.5,104h15.3V77.2
		c0-4.2-3.6-7.7-7.9-7.5c-4,0-7.5,3.5-7.5,7.5L167.5,104L167.5,104z"/>
	<g>
		<path id="i" class="st2" d="M111.9,198h126.5l-5.8,28.8h-115L111.9,198z"/>
	</g>
	<path class="st1" d="M114.2,199.9l5,24.9h112l5-24.9H114.2L114.2,199.9z"/>
	<g>
		<path id="j" class="st2" d="M121.5,100.2h107.4l-5.2,28.8h-97L121.5,100.2z"/>
	</g>
	<path class="st1" d="M123.8,102.1l4.4,24.9h93.9l4.4-24.9H123.8L123.8,102.1z"/>
	<g>
		<path id="k" class="st2" d="M133,23.5h82.4L211,52.3h-73.6L133,23.5z"/>
	</g>
	<path class="st1" d="M135.3,25.4l3.8,24.9h70.4l3.8-24.9H135.3z"/>
	<path class="st3" d="M139,389.9l-6.9,146.5 M147.4,242.6l-5,106.2 M161.6,269.5l-3.6,79.4 M173.3,302.6l-2.1,46.2 M150.8,144.9
		l-2.5,52.3 M153.9,66.1l-1.7,34.7 M163.1,166.9l-1.3,30.5 M157,415.6l-5.8,120.8 M170.6,450.3l-4,86.1"/>
	<path class="st1" d="M-114.5,337.9v199.4H88.7V337.9H-114.5z"/>
	<path class="st1" d="M-41.6,537.3h59.8V420c0-16.7-13.4-30.3-29.9-30.3s-29.9,13.6-29.9,30.3V537.3L-41.6,537.3z"/>
	<g>
		<path id="l" class="st2" d="M-127.7,320.7h228.1v19.2h-228.1V320.7z"/>
	</g>
	<path class="st1" d="M-125.8,322.6H98.5v15.3h-224.3V322.6z"/>
	<ellipse class="st1" cx="-12.5" cy="282.3" rx="40.6" ry="34.5"/>
	<g>
		<path id="m" class="st2" d="M-107.4,305.3H82.4v19.2h-189.8V305.3z"/>
	</g>
	<path class="st1" d="M-105.5,307.3h186v15.3h-186V307.3z"/>
	<g>
		<path id="n" class="st2" d="M-96.1,290H71.1v19.2H-96.1V290z"/>
	</g>
	<path class="st1" d="M-94.2,291.9H69.2v15.3H-94.2V291.9z"/>
	<g>
		<path id="o" class="st2" d="M-74,265.1H47.9v28.8H-74V265.1z"/>
	</g>
	<path class="st1" d="M-72.1,267H46v24.9H-72.1V267z M32.9,537.3v-163h-91.1v163H32.9z"/>
	<circle class="st1" cx="-87.5" cy="372.4" r="15.3"/>
	<path class="st0" d="M-113.3,405h53.7 M-113.3,424.2h53.7 M-113.3,462.5h53.7 M34.3,405H86 M34.3,424.2H86 M34.3,462.5H86"/>
	
		<ellipse transform="matrix(3.327792e-02 -0.9994 0.9994 3.327792e-02 -312.1603 422.0729)" class="st1" cx="62.1" cy="372.4" rx="15.3" ry="15.3"/>
	<circle class="st1" cx="-58.7" cy="280.4" r="5.8"/>
	<circle class="st1" cx="35.2" cy="280.4" r="5.8"/>
	<path class="st1" d="M-47.2,276.6h70.9v7.7h-70.9V276.6z"/>
</g>
</svg>
